<?xml version="1.0" standalone="no"?>
<svg  xmlns="http://www.w3.org/2000/svg" preserveAspectRatio="XMidYMid" xmlns:xlink="http://www.w3.org/1999/xlink" viewBox="250 190 180 115"
	onclick="document.documentElement.setAttribute('viewBox', '0 0 785 558')">
	<!-- 
	style="pointer-events:all" onclick="document.documentElement.setAttribute('viewBox', '0 0 785 558')
	
	 -->
  <desc>51b</desc> 
<style>
.outgoing, .enemy {
	stroke-width:0;
	fill:red;
	opacity:0.5;
}
.incoming, .front {
	stroke-width:0;
	fill:blue;
	opacity:0.5;
}

</style>
  <g>
    <image id="map" width="785" height="558" xlink:href="51b.jpg"/>
  </g>

<g transform="translate(22,25)">
	
<circle cx="258" cy="236" r="2" class="front" content="I.31.d.8.4"/>
<circle cx="258" cy="223" r="2" class="enemy" content="I.31.b.8.7"/>
<circle cx="242" cy="239.5" r="2" class="incoming" content="I.31.c.20.05"/>
<circle cx="269" cy="241" r="2" class="enemy" content="O.2.a.90.90"/>
<circle cx="266.5" cy="237" r="2" class="enemy" content="I.32.c.65.30"/>
<circle cx="259" cy="224" r="2" class="enemy" content="I.31.b.9.6"/>
<circle cx="261.5" cy="230" r="2" class="enemy" content="I.32.a.15.00"/>
<circle cx="287.5" cy="186.5" r="2" class="enemy" content="I.21.a.75.35"/>
<circle cx="259.9" cy="225.5" r="2" class="outgoing" content="I.31.b.99.45"/>
<circle cx="264.5" cy="237.5" r="2" class="outgoing" content="I.32.c.45.25"/>
<circle cx="260" cy="240" r="2" class="front" content="I.32.c.0.0"/>
<circle cx="258" cy="236" r="2" class="front" content="I.31.d.8.4"/>
<circle cx="272.5" cy="242.5" r="2" class="enemy" content="O.2.b.25.75"/>
<circle cx="242" cy="239.5" r="2" class="incoming" content="I.31.c.20.05"/>
<circle cx="259.5" cy="223.5" r="2" class="outgoing" content="I.31.b.95.65"/>
<circle cx="262.3" cy="236" r="2" class="outgoing" content="I.32.c.23.40"/>
<circle cx="282" cy="237" r="2" class="enemy" content="I.33.c.2.3"/>
<circle cx="315" cy="195" r="2" class="enemy" content="I.22.d.5.5"/>
<circle cx="312" cy="202" r="2" class="enemy" content="I.28.b.2.8"/>
<circle cx="265" cy="237" r="2" class="enemy" content="I.32.c.5.3"/>
<circle cx="271.5" cy="210" r="2" class="enemy" content="I.26.b.15.00"/>
<circle cx="270" cy="205" r="2" class="enemy" content="I.26.b.0.5"/>
<circle cx="259.5" cy="226.5" r="2" class="enemy" content="I.31.b.95.35"/>
<circle cx="258" cy="226" r="2" class="front" content="I.31.b.8.4"/>
<circle cx="259" cy="226" r="2" class="enemy" content="I.31.b.9.4"/>
<circle cx="257" cy="223" r="2" class="enemy" content="I.31.b.7.7"/>
<circle cx="267" cy="237" r="2" class="enemy" content="I.32.c.7.3"/>
<circle cx="260.5" cy="230" r="2" class="enemy" content="I.32.a.05.00"/>
<circle cx="260.5" cy="229.5" r="2" class="enemy" content="I.32.a.05.05"/>
<circle cx="273" cy="228" r="2" class="enemy" content="I.32.b.3.2"/>
<circle cx="311" cy="200" r="2" class="enemy" content="I.22.d.1.0"/>
<circle cx="269.5" cy="243.5" r="2" class="incoming" content="O.2.a.95.65"/>
<circle cx="328" cy="184" r="2" class="enemy" content="I.23.a.8.6"/>
<circle cx="328" cy="183" r="2" class="enemy" content="I.23.a.8.7"/>
<circle cx="259" cy="223" r="2" class="enemy" content="I.31.b.90.70"/>
<circle cx="312" cy="213" r="2" class="enemy" content="I.28.d.2.7"/>
<circle cx="255" cy="223" r="2" class="front" content="I.31.b.5.7"/>
<circle cx="262" cy="233" r="2" class="outgoing" content="I.32.c.2.7"/>
<circle cx="262" cy="235" r="2" class="outgoing" content="I.32.c.2.5"/>
<circle cx="262.5" cy="237" r="2" class="outgoing" content="I.32.c.25.30"/>
<circle cx="259.5" cy="235" r="2" class="enemy" content="I.31.d.95.50"/>
<circle cx="263.5" cy="239" r="2" class="enemy" content="I.32.c.35.10"/>
<circle cx="262.5" cy="238" r="2" class="enemy" content="I.32.c.25.20"/>
<circle cx="261" cy="229.5" r="2" class="enemy" content="I.32.a.10.05"/>

</g>

</svg>
