<?xml version="1.0" encoding="UTF-8"?><svg xmlns="http://www.w3.org/2000/svg" xmlns:xlink="http://www.w3.org/1999/xlink" fill-opacity="1" color-rendering="auto" color-interpolation="auto" text-rendering="auto" stroke="black" stroke-linecap="square" width="1487" stroke-miterlimit="10" shape-rendering="auto" stroke-opacity="1" fill="black" stroke-dasharray="none" font-weight="normal" stroke-width="1" height="422" font-family="'Dialog'" font-style="normal" stroke-linejoin="miter" font-size="12px" stroke-dashoffset="0" image-rendering="auto">
  <!--Generated by ySVG 2.5-->
  <defs id="genericDefs"/>
  <g>
    <defs id="defs1">
      <clipPath clipPathUnits="userSpaceOnUse" id="clipPath1">
        <path d="M0 0 L1487 0 L1487 422 L0 422 L0 0 Z"/>
      </clipPath>
      <clipPath clipPathUnits="userSpaceOnUse" id="clipPath2">
        <path d="M-267 -15 L1220 -15 L1220 407 L-267 407 L-267 -15 Z"/>
      </clipPath>
    </defs>
    <g fill="white" text-rendering="geometricPrecision" shape-rendering="geometricPrecision" transform="translate(267,15)" stroke="white">
      <rect x="-267" width="1487" height="422" y="-15" clip-path="url(#clipPath2)" stroke="none"/>
    </g>
    <g id="y.node.0">
      <a target="_blank" xlink:type="simple" xlink:href="https://tigersmuseum.github.io/history/events/rhants/eventdiary.xhtml#N83955" xlink:show="new">
        <g fill="rgb(51,204,204)" text-rendering="geometricPrecision" shape-rendering="geometricPrecision" transform="matrix(1,0,0,1,267,15)" stroke="rgb(51,204,204)">
          <rect x="786.5254" y="0" width="69.3828" rx="4" ry="4" height="30" stroke="none"/>
        </g>
        <g text-rendering="geometricPrecision" stroke-miterlimit="1.45" shape-rendering="geometricPrecision" transform="matrix(1,0,0,1,267,15)" stroke-linecap="butt">
          <rect x="786.5254" y="0" fill="none" width="69.3828" rx="4" ry="4" height="30"/>
        </g>
        <g>
          <g text-rendering="geometricPrecision" stroke-miterlimit="1.45" shape-rendering="geometricPrecision" font-family="sans-serif" transform="matrix(1,0,0,1,267,15)" stroke-linecap="butt">
            <text x="499.3525" xml:space="preserve" y="48.0645" stroke="none">128th Brigade (2nd, 1/4th and 5th Battalions) withdrawn to concentration area, south of Ancona, under orders for Greece.</text>
          </g>
        </g>
        <g>
          <g text-rendering="geometricPrecision" stroke-miterlimit="1.45" shape-rendering="geometricPrecision" font-family="sans-serif" transform="matrix(1,0,0,1,267,15)" stroke-linecap="butt">
            <text x="790.5254" xml:space="preserve" y="19.7139" stroke="none">1944-12-11</text>
          </g>
        </g>
      </a>
    </g>
    <g id="y.node.1">
      <a target="_blank" xlink:type="simple" xlink:href="https://tigersmuseum.github.io/history/events/rhants/eventdiary.xhtml#N83995" xlink:show="new">
        <g fill="rgb(204,153,255)" text-rendering="geometricPrecision" shape-rendering="geometricPrecision" transform="matrix(1,0,0,1,267,15)" stroke="rgb(204,153,255)">
          <rect x="55.1436" y="0" width="69.3828" rx="4" ry="4" height="30" stroke="none"/>
        </g>
        <g text-rendering="geometricPrecision" stroke-miterlimit="1.45" shape-rendering="geometricPrecision" transform="matrix(1,0,0,1,267,15)" stroke-linecap="butt">
          <rect x="55.1436" y="0" fill="none" width="69.3828" rx="4" ry="4" height="30"/>
        </g>
        <g>
          <g text-rendering="geometricPrecision" stroke-miterlimit="1.45" shape-rendering="geometricPrecision" font-family="sans-serif" transform="matrix(1,0,0,1,267,15)" stroke-linecap="butt">
            <text x="-250" xml:space="preserve" y="48.0645" stroke="none">2/4th Battalion (28th Brigade) flown from Taranto, Italy landed on Hasani Airfield Athens under ELAS small arms and mortar fire.</text>
          </g>
        </g>
        <g>
          <g text-rendering="geometricPrecision" stroke-miterlimit="1.45" shape-rendering="geometricPrecision" font-family="sans-serif" transform="matrix(1,0,0,1,267,15)" stroke-linecap="butt">
            <text x="59.1436" xml:space="preserve" y="19.7139" stroke="none">1944-12-12</text>
          </g>
        </g>
      </a>
    </g>
    <g id="y.node.2">
      <a target="_blank" xlink:type="simple" xlink:href="https://tigersmuseum.github.io/history/events/rhants/eventdiary.xhtml#N84029" xlink:show="new">
        <g fill="rgb(204,153,255)" text-rendering="geometricPrecision" shape-rendering="geometricPrecision" transform="matrix(1,0,0,1,267,15)" stroke="rgb(204,153,255)">
          <rect x="55.1436" y="67.7012" width="69.3828" rx="4" ry="4" height="30" stroke="none"/>
        </g>
        <g text-rendering="geometricPrecision" stroke-miterlimit="1.45" shape-rendering="geometricPrecision" transform="matrix(1,0,0,1,267,15)" stroke-linecap="butt">
          <rect x="55.1436" y="67.7012" fill="none" width="69.3828" rx="4" ry="4" height="30"/>
        </g>
        <g>
          <g text-rendering="geometricPrecision" stroke-miterlimit="1.45" shape-rendering="geometricPrecision" font-family="sans-serif" transform="matrix(1,0,0,1,267,15)" stroke-linecap="butt">
            <text x="-133.3076" xml:space="preserve" y="115.7656" stroke="none">2/4th Battalion engaged in street clearing operations against ELAS forces in Athens.</text>
          </g>
        </g>
        <g>
          <g text-rendering="geometricPrecision" stroke-miterlimit="1.45" shape-rendering="geometricPrecision" font-family="sans-serif" transform="matrix(1,0,0,1,267,15)" stroke-linecap="butt">
            <text x="59.1436" xml:space="preserve" y="87.415" stroke="none">1944-12-17</text>
          </g>
        </g>
      </a>
    </g>
    <g id="y.node.3">
      <a target="_blank" xlink:type="simple" xlink:href="https://tigersmuseum.github.io/history/events/rhants/eventdiary.xhtml#N84184" xlink:show="new">
        <g fill="rgb(204,153,255)" text-rendering="geometricPrecision" shape-rendering="geometricPrecision" transform="matrix(1,0,0,1,267,15)" stroke="rgb(204,153,255)">
          <rect x="63.8154" y="135.4023" width="52.0391" rx="4" ry="4" height="30" stroke="none"/>
        </g>
        <g text-rendering="geometricPrecision" stroke-miterlimit="1.45" shape-rendering="geometricPrecision" transform="matrix(1,0,0,1,267,15)" stroke-linecap="butt">
          <rect x="63.8154" y="135.4023" fill="none" width="52.0391" rx="4" ry="4" height="30"/>
        </g>
        <g>
          <g text-rendering="geometricPrecision" stroke-miterlimit="1.45" shape-rendering="geometricPrecision" font-family="sans-serif" transform="matrix(1,0,0,1,267,15)" stroke-linecap="butt">
            <text x="-109.9404" xml:space="preserve" y="183.4668" stroke="none">2/4th Bn garrison duties and relief work in Athens, Petramagaula &amp; Khalkis.</text>
          </g>
        </g>
        <g>
          <g text-rendering="geometricPrecision" stroke-miterlimit="1.45" shape-rendering="geometricPrecision" font-family="sans-serif" transform="matrix(1,0,0,1,267,15)" stroke-linecap="butt">
            <text x="67.8154" xml:space="preserve" y="155.1162" stroke="none">1945-01</text>
          </g>
        </g>
      </a>
    </g>
    <g id="y.node.4">
      <a target="_blank" xlink:type="simple" xlink:href="https://tigersmuseum.github.io/history/events/rhants/eventdiary.xhtml#N84246" xlink:show="new">
        <g fill="rgb(204,153,255)" text-rendering="geometricPrecision" shape-rendering="geometricPrecision" transform="matrix(1,0,0,1,267,15)" stroke="rgb(204,153,255)">
          <rect x="786.5254" y="67.7012" width="69.3828" rx="4" ry="4" height="30" stroke="none"/>
        </g>
        <g text-rendering="geometricPrecision" stroke-miterlimit="1.45" shape-rendering="geometricPrecision" transform="matrix(1,0,0,1,267,15)" stroke-linecap="butt">
          <rect x="786.5254" y="67.7012" fill="none" width="69.3828" rx="4" ry="4" height="30"/>
        </g>
        <g>
          <g text-rendering="geometricPrecision" stroke-miterlimit="1.45" shape-rendering="geometricPrecision" font-family="sans-serif" transform="matrix(1,0,0,1,267,15)" stroke-linecap="butt">
            <text x="690.8193" xml:space="preserve" y="115.7656" stroke="none">2nd &amp; 5th Bns disembarked at Piraeus from Italy.</text>
          </g>
        </g>
        <g>
          <g text-rendering="geometricPrecision" stroke-miterlimit="1.45" shape-rendering="geometricPrecision" font-family="sans-serif" transform="matrix(1,0,0,1,267,15)" stroke-linecap="butt">
            <text x="790.5254" xml:space="preserve" y="87.415" stroke="none">1945-01-15</text>
          </g>
        </g>
      </a>
    </g>
    <g id="y.node.5">
      <a target="_blank" xlink:type="simple" xlink:href="https://tigersmuseum.github.io/history/events/rhants/eventdiary.xhtml#N84311" xlink:show="new">
        <g fill="rgb(204,153,255)" text-rendering="geometricPrecision" shape-rendering="geometricPrecision" transform="matrix(1,0,0,1,267,15)" stroke="rgb(204,153,255)">
          <rect x="786.5254" y="135.4023" width="69.3828" rx="4" ry="4" height="30" stroke="none"/>
        </g>
        <g text-rendering="geometricPrecision" stroke-miterlimit="1.45" shape-rendering="geometricPrecision" transform="matrix(1,0,0,1,267,15)" stroke-linecap="butt">
          <rect x="786.5254" y="135.4023" fill="none" width="69.3828" rx="4" ry="4" height="30"/>
        </g>
        <g>
          <g text-rendering="geometricPrecision" stroke-miterlimit="1.45" shape-rendering="geometricPrecision" font-family="sans-serif" transform="matrix(1,0,0,1,267,15)" stroke-linecap="butt">
            <text x="440" xml:space="preserve" y="183.4668" stroke="none">‘Tigerforce’ (2nd &amp; 5th Bns and 46th Div Recce Regt) occupy Argos &amp; Naoplion in the Peloponnese to enforce the disbandment of ELAS forces.</text>
          </g>
        </g>
        <g>
          <g text-rendering="geometricPrecision" stroke-miterlimit="1.45" shape-rendering="geometricPrecision" font-family="sans-serif" transform="matrix(1,0,0,1,267,15)" stroke-linecap="butt">
            <text x="790.5254" xml:space="preserve" y="155.1162" stroke="none">1945-01-24</text>
          </g>
        </g>
      </a>
    </g>
    <g id="y.node.6">
      <a target="_blank" xlink:type="simple" xlink:href="https://tigersmuseum.github.io/history/events/rhants/eventdiary.xhtml#N84410" xlink:show="new">
        <g fill="rgb(204,153,255)" text-rendering="geometricPrecision" shape-rendering="geometricPrecision" transform="matrix(1,0,0,1,267,15)" stroke="rgb(204,153,255)">
          <rect x="786.5254" y="203.1035" width="69.3828" rx="4" ry="4" height="30" stroke="none"/>
        </g>
        <g text-rendering="geometricPrecision" stroke-miterlimit="1.45" shape-rendering="geometricPrecision" transform="matrix(1,0,0,1,267,15)" stroke-linecap="butt">
          <rect x="786.5254" y="203.1035" fill="none" width="69.3828" rx="4" ry="4" height="30"/>
        </g>
        <g>
          <g text-rendering="geometricPrecision" stroke-miterlimit="1.45" shape-rendering="geometricPrecision" font-family="sans-serif" transform="matrix(1,0,0,1,267,15)" stroke-linecap="butt">
            <text x="668.7969" xml:space="preserve" y="251.168" stroke="none">1/4th Bn joined ‘Tigerforce’ in the Peloponnese from Italy.</text>
          </g>
        </g>
        <g>
          <g text-rendering="geometricPrecision" stroke-miterlimit="1.45" shape-rendering="geometricPrecision" font-family="sans-serif" transform="matrix(1,0,0,1,267,15)" stroke-linecap="butt">
            <text x="790.5254" xml:space="preserve" y="222.8174" stroke="none">1945-01-30</text>
          </g>
        </g>
      </a>
    </g>
    <g id="y.node.7">
      <a target="_blank" xlink:type="simple" xlink:href="https://tigersmuseum.github.io/history/events/rhants/eventdiary.xhtml#N84472" xlink:show="new">
        <g fill="rgb(204,153,255)" text-rendering="geometricPrecision" shape-rendering="geometricPrecision" transform="matrix(1,0,0,1,267,15)" stroke="rgb(204,153,255)">
          <rect x="63.8154" y="203.1035" width="52.0391" rx="4" ry="4" height="30" stroke="none"/>
        </g>
        <g text-rendering="geometricPrecision" stroke-miterlimit="1.45" shape-rendering="geometricPrecision" transform="matrix(1,0,0,1,267,15)" stroke-linecap="butt">
          <rect x="63.8154" y="203.1035" fill="none" width="52.0391" rx="4" ry="4" height="30"/>
        </g>
        <g>
          <g text-rendering="geometricPrecision" stroke-miterlimit="1.45" shape-rendering="geometricPrecision" font-family="sans-serif" transform="matrix(1,0,0,1,267,15)" stroke-linecap="butt">
            <text x="-54.9121" xml:space="preserve" y="251.168" stroke="none">2/4th Bn relief work in Petramagoula and Khalkis area.</text>
          </g>
        </g>
        <g>
          <g text-rendering="geometricPrecision" stroke-miterlimit="1.45" shape-rendering="geometricPrecision" font-family="sans-serif" transform="matrix(1,0,0,1,267,15)" stroke-linecap="butt">
            <text x="67.8154" xml:space="preserve" y="222.8174" stroke="none">1945-02</text>
          </g>
        </g>
      </a>
    </g>
    <g id="y.node.8">
      <a target="_blank" xlink:type="simple" xlink:href="https://tigersmuseum.github.io/history/events/rhants/eventdiary.xhtml#N84503" xlink:show="new">
        <g fill="rgb(204,153,255)" text-rendering="geometricPrecision" shape-rendering="geometricPrecision" transform="matrix(1,0,0,1,267,15)" stroke="rgb(204,153,255)">
          <rect x="795.1973" y="270.8047" width="52.0391" rx="4" ry="4" height="30" stroke="none"/>
        </g>
        <g text-rendering="geometricPrecision" stroke-miterlimit="1.45" shape-rendering="geometricPrecision" transform="matrix(1,0,0,1,267,15)" stroke-linecap="butt">
          <rect x="795.1973" y="270.8047" fill="none" width="52.0391" rx="4" ry="4" height="30"/>
        </g>
        <g>
          <g text-rendering="geometricPrecision" stroke-miterlimit="1.45" shape-rendering="geometricPrecision" font-family="sans-serif" transform="matrix(1,0,0,1,267,15)" stroke-linecap="butt">
            <text x="521.0498" xml:space="preserve" y="318.8691" stroke="none">128th Bde (2nd, 1/4th &amp; 5th Bns) reorganised Civil Administration of Argolis – Korinthia Province of Peloponnese.</text>
          </g>
        </g>
        <g>
          <g text-rendering="geometricPrecision" stroke-miterlimit="1.45" shape-rendering="geometricPrecision" font-family="sans-serif" transform="matrix(1,0,0,1,267,15)" stroke-linecap="butt">
            <text x="799.1973" xml:space="preserve" y="290.5186" stroke="none">1945-02</text>
          </g>
        </g>
      </a>
    </g>
    <g id="y.node.9">
      <a target="_blank" xlink:type="simple" xlink:href="https://tigersmuseum.github.io/history/events/rhants/eventdiary.xhtml#N85039" xlink:show="new">
        <g fill="rgb(204,153,255)" text-rendering="geometricPrecision" shape-rendering="geometricPrecision" transform="matrix(1,0,0,1,267,15)" stroke="rgb(204,153,255)">
          <rect x="55.1436" y="270.8047" width="69.3828" rx="4" ry="4" height="30" stroke="none"/>
        </g>
        <g text-rendering="geometricPrecision" stroke-miterlimit="1.45" shape-rendering="geometricPrecision" transform="matrix(1,0,0,1,267,15)" stroke-linecap="butt">
          <rect x="55.1436" y="270.8047" fill="none" width="69.3828" rx="4" ry="4" height="30"/>
        </g>
        <g>
          <g text-rendering="geometricPrecision" stroke-miterlimit="1.45" shape-rendering="geometricPrecision" font-family="sans-serif" transform="matrix(1,0,0,1,267,15)" stroke-linecap="butt">
            <text x="-227.0137" xml:space="preserve" y="318.8691" stroke="none">2/4th Bn moved to Crete from Greece and took prisoner over 12,000 Germans and 3,000 Italians who had surrendered.</text>
          </g>
        </g>
        <g>
          <g text-rendering="geometricPrecision" stroke-miterlimit="1.45" shape-rendering="geometricPrecision" font-family="sans-serif" transform="matrix(1,0,0,1,267,15)" stroke-linecap="butt">
            <text x="59.1436" xml:space="preserve" y="290.5186" stroke="none">1945-05-10</text>
          </g>
        </g>
      </a>
    </g>
    <g id="y.node.10">
      <a target="_blank" xlink:type="simple" xlink:href="https://tigersmuseum.github.io/history/events/rhants/eventdiary.xhtml#N85070" xlink:show="new">
        <g fill="rgb(204,153,255)" text-rendering="geometricPrecision" shape-rendering="geometricPrecision" transform="matrix(1,0,0,1,267,15)" stroke="rgb(204,153,255)">
          <rect x="55.1436" y="338.5059" width="69.3828" rx="4" ry="4" height="30" stroke="none"/>
        </g>
        <g text-rendering="geometricPrecision" stroke-miterlimit="1.45" shape-rendering="geometricPrecision" transform="matrix(1,0,0,1,267,15)" stroke-linecap="butt">
          <rect x="55.1436" y="338.5059" fill="none" width="69.3828" rx="4" ry="4" height="30"/>
        </g>
        <g>
          <g text-rendering="geometricPrecision" stroke-miterlimit="1.45" shape-rendering="geometricPrecision" font-family="sans-serif" transform="matrix(1,0,0,1,267,15)" stroke-linecap="butt">
            <text x="-20.9014" xml:space="preserve" y="386.5703" stroke="none">2/4th Battalion move to Ioannina, Greece.</text>
          </g>
        </g>
        <g>
          <g text-rendering="geometricPrecision" stroke-miterlimit="1.45" shape-rendering="geometricPrecision" font-family="sans-serif" transform="matrix(1,0,0,1,267,15)" stroke-linecap="butt">
            <text x="59.1436" xml:space="preserve" y="358.2197" stroke="none">1945-08-10</text>
          </g>
        </g>
      </a>
    </g>
    <g id="y.edge.1">
      <g text-rendering="geometricPrecision" stroke-miterlimit="1.45" shape-rendering="geometricPrecision" transform="matrix(1,0,0,1,267,15)" stroke-linecap="butt">
        <path fill="none" d="M89.835 30 L89.835 59.6644"/>
        <path d="M89.835 67.6644 L94.835 55.6644 L89.835 58.6644 L84.835 55.6644 Z" stroke="none"/>
      </g>
    </g>
    <g id="y.edge.2">
      <g text-rendering="geometricPrecision" stroke-miterlimit="1.45" shape-rendering="geometricPrecision" transform="matrix(1,0,0,1,267,15)" stroke-linecap="butt">
        <path fill="none" d="M89.835 97.7012 L89.835 127.3655"/>
        <path d="M89.835 135.3655 L94.835 123.3655 L89.835 126.3655 L84.835 123.3655 Z" stroke="none"/>
      </g>
    </g>
    <g id="y.edge.0">
      <g text-rendering="geometricPrecision" stroke-miterlimit="1.45" shape-rendering="geometricPrecision" transform="matrix(1,0,0,1,267,15)" stroke-linecap="butt">
        <path fill="none" d="M821.2168 30 L821.2168 59.6644"/>
        <path d="M821.2168 67.6644 L826.2168 55.6644 L821.2168 58.6644 L816.2168 55.6644 Z" stroke="none"/>
      </g>
    </g>
    <g id="y.edge.4">
      <g text-rendering="geometricPrecision" stroke-miterlimit="1.45" shape-rendering="geometricPrecision" transform="matrix(1,0,0,1,267,15)" stroke-linecap="butt">
        <path fill="none" d="M821.2168 97.7012 L821.2168 127.3655"/>
        <path d="M821.2168 135.3655 L826.2168 123.3655 L821.2168 126.3655 L816.2168 123.3655 Z" stroke="none"/>
      </g>
    </g>
    <g id="y.edge.5">
      <g text-rendering="geometricPrecision" stroke-miterlimit="1.45" shape-rendering="geometricPrecision" transform="matrix(1,0,0,1,267,15)" stroke-linecap="butt">
        <path fill="none" d="M821.2168 165.4023 L821.2168 195.0667"/>
        <path d="M821.2168 203.0667 L826.2168 191.0667 L821.2168 194.0667 L816.2168 191.0667 Z" stroke="none"/>
      </g>
    </g>
    <g id="y.edge.3">
      <g text-rendering="geometricPrecision" stroke-miterlimit="1.45" shape-rendering="geometricPrecision" transform="matrix(1,0,0,1,267,15)" stroke-linecap="butt">
        <path fill="none" d="M89.835 165.4023 L89.835 195.0667"/>
        <path d="M89.835 203.0667 L94.835 191.0667 L89.835 194.0667 L84.835 191.0667 Z" stroke="none"/>
      </g>
    </g>
    <g id="y.edge.6">
      <g text-rendering="geometricPrecision" stroke-miterlimit="1.45" shape-rendering="geometricPrecision" transform="matrix(1,0,0,1,267,15)" stroke-linecap="butt">
        <path fill="none" d="M821.2168 233.1035 L821.2168 262.7679"/>
        <path d="M821.2168 270.7679 L826.2168 258.7679 L821.2168 261.7679 L816.2168 258.7679 Z" stroke="none"/>
      </g>
    </g>
    <g id="y.edge.7">
      <g text-rendering="geometricPrecision" stroke-miterlimit="1.45" shape-rendering="geometricPrecision" transform="matrix(1,0,0,1,267,15)" stroke-linecap="butt">
        <path fill="none" d="M89.835 233.1035 L89.835 262.7679"/>
        <path d="M89.835 270.7679 L94.835 258.7679 L89.835 261.7679 L84.835 258.7679 Z" stroke="none"/>
      </g>
    </g>
    <g id="y.edge.8">
      <g text-rendering="geometricPrecision" stroke-miterlimit="1.45" shape-rendering="geometricPrecision" transform="matrix(1,0,0,1,267,15)" stroke-linecap="butt">
        <path fill="none" d="M89.835 300.8047 L89.835 330.4691"/>
        <path d="M89.835 338.4691 L94.835 326.4691 L89.835 329.4691 L84.835 326.4691 Z" stroke="none"/>
      </g>
    </g>
  </g>
</svg>
