<?xml version="1.0" encoding="UTF-8"?><svg xmlns="http://www.w3.org/2000/svg" xmlns:xlink="http://www.w3.org/1999/xlink" fill-opacity="1" color-rendering="auto" color-interpolation="auto" text-rendering="auto" stroke="black" stroke-linecap="square" width="403" stroke-miterlimit="10" shape-rendering="auto" stroke-opacity="1" fill="black" stroke-dasharray="none" font-weight="normal" stroke-width="1" height="171" font-family="'Dialog'" font-style="normal" stroke-linejoin="miter" font-size="12px" stroke-dashoffset="0" image-rendering="auto">
  <!--Generated by ySVG 2.5-->
  <defs id="genericDefs"/>
  <g>
    <defs id="defs1">
      <clipPath clipPathUnits="userSpaceOnUse" id="clipPath1">
        <path d="M0 0 L403 0 L403 171 L0 171 L0 0 Z"/>
      </clipPath>
      <clipPath clipPathUnits="userSpaceOnUse" id="clipPath2">
        <path d="M5 -15 L408 -15 L408 156 L5 156 L5 -15 Z"/>
      </clipPath>
    </defs>
    <g fill="white" text-rendering="geometricPrecision" shape-rendering="geometricPrecision" transform="translate(-5,15)" stroke="white">
      <rect x="5" width="403" height="171" y="-15" clip-path="url(#clipPath2)" stroke="none"/>
    </g>
    <g id="y.node.0">
      <a target="_blank" xlink:type="simple" xlink:href="https://tigersmuseum.github.io/history/examples/ww2-tunisia.svg" xlink:show="new">
        <g fill="rgb(255,204,0)" text-rendering="geometricPrecision" shape-rendering="geometricPrecision" transform="matrix(1,0,0,1,-5,15)" stroke="rgb(255,204,0)">
          <rect x="169.7239" y="0" width="117.3887" rx="4" ry="4" height="30" stroke="none"/>
        </g>
        <g text-rendering="geometricPrecision" stroke-miterlimit="1.45" shape-rendering="geometricPrecision" transform="matrix(1,0,0,1,-5,15)" stroke-linecap="butt">
          <rect x="169.7239" y="0" fill="none" width="117.3887" rx="4" ry="4" height="30"/>
        </g>
        <g>
          <g text-rendering="geometricPrecision" stroke-miterlimit="1.45" shape-rendering="geometricPrecision" font-family="sans-serif" transform="matrix(1,0,0,1,-5,15)" stroke-linecap="butt">
            <text x="176.7239" xml:space="preserve" y="19.7139" stroke="none">Tunisian Campaign</text>
          </g>
        </g>
      </a>
    </g>
    <g id="y.node.1">
      <a target="_blank" xlink:type="simple" xlink:href="https://tigersmuseum.github.io/history/examples/ww2-sicily.svg" xlink:show="new">
        <g fill="rgb(255,204,0)" text-rendering="geometricPrecision" shape-rendering="geometricPrecision" transform="matrix(1,0,0,1,-5,15)" stroke="rgb(255,204,0)">
          <rect x="175.3987" y="50" width="106.0391" rx="4" ry="4" height="30" stroke="none"/>
        </g>
        <g text-rendering="geometricPrecision" stroke-miterlimit="1.45" shape-rendering="geometricPrecision" transform="matrix(1,0,0,1,-5,15)" stroke-linecap="butt">
          <rect x="175.3987" y="50" fill="none" width="106.0391" rx="4" ry="4" height="30"/>
        </g>
        <g>
          <g text-rendering="geometricPrecision" stroke-miterlimit="1.45" shape-rendering="geometricPrecision" font-family="sans-serif" transform="matrix(1,0,0,1,-5,15)" stroke-linecap="butt">
            <text x="182.3987" xml:space="preserve" y="69.7139" stroke="none">Invasion of Siciliy</text>
          </g>
        </g>
      </a>
    </g>
    <g id="y.node.2">
      <a target="_blank" xlink:type="simple" xlink:href="https://tigersmuseum.github.io/history/examples/ww2-italy.svg" xlink:show="new">
        <g fill="rgb(255,204,0)" text-rendering="geometricPrecision" shape-rendering="geometricPrecision" transform="matrix(1,0,0,1,-5,15)" stroke="rgb(255,204,0)">
          <rect x="20.0002" y="111" width="97.3789" rx="4" ry="4" height="30" stroke="none"/>
        </g>
        <g text-rendering="geometricPrecision" stroke-miterlimit="1.45" shape-rendering="geometricPrecision" transform="matrix(1,0,0,1,-5,15)" stroke-linecap="butt">
          <rect x="20.0002" y="111" fill="none" width="97.3789" rx="4" ry="4" height="30"/>
        </g>
        <g>
          <g text-rendering="geometricPrecision" stroke-miterlimit="1.45" shape-rendering="geometricPrecision" font-family="sans-serif" transform="matrix(1,0,0,1,-5,15)" stroke-linecap="butt">
            <text x="27.0002" xml:space="preserve" y="130.7139" stroke="none">Invasion of Italy</text>
          </g>
        </g>
      </a>
    </g>
    <g id="y.node.3">
      <a target="_blank" xlink:type="simple" xlink:href="https://tigersmuseum.github.io/history/examples/ww2-europe.svg" xlink:show="new">
        <g fill="rgb(255,204,0)" text-rendering="geometricPrecision" shape-rendering="geometricPrecision" transform="matrix(1,0,0,1,-5,15)" stroke="rgb(255,204,0)">
          <rect x="147.3792" y="111" width="162.0781" rx="4" ry="4" height="30" stroke="none"/>
        </g>
        <g text-rendering="geometricPrecision" stroke-miterlimit="1.45" shape-rendering="geometricPrecision" transform="matrix(1,0,0,1,-5,15)" stroke-linecap="butt">
          <rect x="147.3792" y="111" fill="none" width="162.0781" rx="4" ry="4" height="30"/>
        </g>
        <g>
          <g text-rendering="geometricPrecision" stroke-miterlimit="1.45" shape-rendering="geometricPrecision" font-family="sans-serif" transform="matrix(1,0,0,1,-5,15)" stroke-linecap="butt">
            <text x="154.3792" xml:space="preserve" y="130.7139" stroke="none">Invasion of Western Europe</text>
          </g>
        </g>
      </a>
    </g>
    <g id="y.node.4">
      <a target="_blank" xlink:type="simple" xlink:href="https://tigersmuseum.github.io/history/examples/ww2-greece.svg" xlink:show="new">
        <g fill="rgb(255,204,0)" text-rendering="geometricPrecision" shape-rendering="geometricPrecision" transform="matrix(1,0,0,1,-5,15)" stroke="rgb(255,204,0)">
          <rect x="339.4576" y="111" width="53.3516" rx="4" ry="4" height="30" stroke="none"/>
        </g>
        <g text-rendering="geometricPrecision" stroke-miterlimit="1.45" shape-rendering="geometricPrecision" transform="matrix(1,0,0,1,-5,15)" stroke-linecap="butt">
          <rect x="339.4576" y="111" fill="none" width="53.3516" rx="4" ry="4" height="30"/>
        </g>
        <g>
          <g text-rendering="geometricPrecision" stroke-miterlimit="1.45" shape-rendering="geometricPrecision" font-family="sans-serif" transform="matrix(1,0,0,1,-5,15)" stroke-linecap="butt">
            <text x="346.4576" xml:space="preserve" y="130.7139" stroke="none">Greece</text>
          </g>
        </g>
      </a>
    </g>
    <g id="y.edge.0">
      <g text-rendering="geometricPrecision" stroke-miterlimit="1.45" shape-rendering="geometricPrecision" transform="matrix(1,0,0,1,-5,15)" stroke-linecap="butt">
        <path fill="none" d="M228.4183 30 L228.4183 41.9609"/>
        <path d="M228.4183 49.9609 L233.4183 37.9609 L228.4183 40.9609 L223.4183 37.9609 Z" stroke="none"/>
      </g>
    </g>
    <g id="y.edge.1">
      <g text-rendering="geometricPrecision" stroke-miterlimit="1.45" shape-rendering="geometricPrecision" transform="matrix(1,0,0,1,-5,15)" stroke-linecap="butt">
        <path fill="none" d="M193.0719 80 L193.0719 95.5 L68.6897 95.5 L68.6897 102.9697"/>
        <path d="M68.6897 110.9697 L73.6897 98.9697 L68.6897 101.9697 L63.6897 98.9697 Z" stroke="none"/>
      </g>
    </g>
    <g id="y.edge.2">
      <g text-rendering="geometricPrecision" stroke-miterlimit="1.45" shape-rendering="geometricPrecision" transform="matrix(1,0,0,1,-5,15)" stroke-linecap="butt">
        <path fill="none" d="M228.4183 80 L228.4183 102.9697"/>
        <path d="M228.4183 110.9697 L233.4183 98.9697 L228.4183 101.9697 L223.4183 98.9697 Z" stroke="none"/>
      </g>
    </g>
    <g id="y.edge.3">
      <g text-rendering="geometricPrecision" stroke-miterlimit="1.45" shape-rendering="geometricPrecision" transform="matrix(1,0,0,1,-5,15)" stroke-linecap="butt">
        <path fill="none" d="M263.7646 80 L263.7646 95.5 L366.1333 95.5 L366.1333 102.9697"/>
        <path d="M366.1333 110.9697 L371.1333 98.9697 L366.1333 101.9697 L361.1333 98.9697 Z" stroke="none"/>
      </g>
    </g>
  </g>
</svg>
