<?xml version="1.0" encoding="UTF-8"?><svg xmlns="http://www.w3.org/2000/svg" xmlns:xlink="http://www.w3.org/1999/xlink" fill-opacity="1" color-rendering="auto" color-interpolation="auto" text-rendering="auto" stroke="black" stroke-linecap="square" width="1110" stroke-miterlimit="10" shape-rendering="auto" stroke-opacity="1" fill="black" stroke-dasharray="none" font-weight="normal" stroke-width="1" height="354" font-family="'Dialog'" font-style="normal" stroke-linejoin="miter" font-size="12px" stroke-dashoffset="0" image-rendering="auto">
  <!--Generated by ySVG 2.5-->
  <defs id="genericDefs"/>
  <g>
    <defs id="defs1">
      <clipPath clipPathUnits="userSpaceOnUse" id="clipPath1">
        <path d="M0 0 L1110 0 L1110 354 L0 354 L0 0 Z"/>
      </clipPath>
      <clipPath clipPathUnits="userSpaceOnUse" id="clipPath2">
        <path d="M-134 -120 L976 -120 L976 234 L-134 234 L-134 -120 Z"/>
      </clipPath>
    </defs>
    <g fill="white" text-rendering="geometricPrecision" shape-rendering="geometricPrecision" transform="translate(134,120)" stroke="white">
      <rect x="-134" width="1110" height="354" y="-120" clip-path="url(#clipPath2)" stroke="none"/>
    </g>
    <g id="y.node.0">
      <a target="_blank" xlink:type="simple" xlink:href="https://tigersmuseum.github.io/history/events/rhants/eventdiary.xhtml#N81236" xlink:show="new">
        <g fill="rgb(255,153,0)" text-rendering="geometricPrecision" shape-rendering="geometricPrecision" transform="matrix(1,0,0,1,134,120)" stroke="rgb(255,153,0)">
          <rect x="155.8145" y="-105" width="69.3828" rx="4" ry="4" height="30" stroke="none"/>
        </g>
        <g text-rendering="geometricPrecision" stroke-miterlimit="1.45" shape-rendering="geometricPrecision" transform="matrix(1,0,0,1,134,120)" stroke-linecap="butt">
          <rect x="155.8145" y="-105" fill="none" width="69.3828" rx="4" ry="4" height="30"/>
        </g>
        <g>
          <g text-rendering="geometricPrecision" stroke-miterlimit="1.45" shape-rendering="geometricPrecision" font-family="sans-serif" transform="matrix(1,0,0,1,134,120)" stroke-linecap="butt">
            <text x="-117" xml:space="preserve" y="-56.9355" stroke="none">1st Battalion embarked for Suez in SS Otranto as part of 231 (Independent) Brigade Group for the invasion of Sicily.</text>
          </g>
        </g>
        <g>
          <g text-rendering="geometricPrecision" stroke-miterlimit="1.45" shape-rendering="geometricPrecision" font-family="sans-serif" transform="matrix(1,0,0,1,134,120)" stroke-linecap="butt">
            <text x="159.8145" xml:space="preserve" y="-85.2861" stroke="none">1943-07-01</text>
          </g>
        </g>
      </a>
    </g>
    <g id="y.node.1">
      <a target="_blank" xlink:type="simple" xlink:href="https://tigersmuseum.github.io/history/events/rhants/eventdiary.xhtml#N81267" xlink:show="new">
        <g fill="rgb(51,204,204)" text-rendering="geometricPrecision" shape-rendering="geometricPrecision" transform="matrix(1,0,0,1,134,120)" stroke="rgb(51,204,204)">
          <rect x="155.8145" y="-37.2988" width="69.3828" rx="4" ry="4" height="30" stroke="none"/>
        </g>
        <g text-rendering="geometricPrecision" stroke-miterlimit="1.45" shape-rendering="geometricPrecision" transform="matrix(1,0,0,1,134,120)" stroke-linecap="butt">
          <rect x="155.8145" y="-37.2988" fill="none" width="69.3828" rx="4" ry="4" height="30"/>
        </g>
        <g>
          <g text-rendering="geometricPrecision" stroke-miterlimit="1.45" shape-rendering="geometricPrecision" font-family="sans-serif" transform="matrix(1,0,0,1,134,120)" stroke-linecap="butt">
            <text x="6.4102" xml:space="preserve" y="10.7656" stroke="none">1st Battalion (231 Brigade) in assault invasion landing at Marzamemi.</text>
          </g>
        </g>
        <g>
          <g text-rendering="geometricPrecision" stroke-miterlimit="1.45" shape-rendering="geometricPrecision" font-family="sans-serif" transform="matrix(1,0,0,1,134,120)" stroke-linecap="butt">
            <text x="159.8145" xml:space="preserve" y="-17.585" stroke="none">1943-07-10</text>
          </g>
        </g>
      </a>
    </g>
    <g id="y.node.2">
      <a target="_blank" xlink:type="simple" xlink:href="https://tigersmuseum.github.io/history/events/rhants/eventdiary.xhtml#N81298" xlink:show="new">
        <g fill="rgb(51,204,204)" text-rendering="geometricPrecision" shape-rendering="geometricPrecision" transform="matrix(1,0,0,1,134,120)" stroke="rgb(51,204,204)">
          <rect x="684.2197" y="-31.4941" width="69.3828" rx="4" ry="4" height="30" stroke="none"/>
        </g>
        <g text-rendering="geometricPrecision" stroke-miterlimit="1.45" shape-rendering="geometricPrecision" transform="matrix(1,0,0,1,134,120)" stroke-linecap="butt">
          <rect x="684.2197" y="-31.4941" fill="none" width="69.3828" rx="4" ry="4" height="30"/>
        </g>
        <g>
          <g text-rendering="geometricPrecision" stroke-miterlimit="1.45" shape-rendering="geometricPrecision" font-family="sans-serif" transform="matrix(1,0,0,1,134,120)" stroke-linecap="butt">
            <text x="479.7812" xml:space="preserve" y="16.5703" stroke="none">2/4th Battalion (Battalion HQ, A &amp; B Companies), forming part of 20 Beach Group, landed </text>
            <text x="519.1299" xml:space="preserve" y="31.2715" stroke="none">with assault troops of 51 Highland Division at Cape Passaro and Portopalo.</text>
          </g>
        </g>
        <g>
          <g text-rendering="geometricPrecision" stroke-miterlimit="1.45" shape-rendering="geometricPrecision" font-family="sans-serif" transform="matrix(1,0,0,1,134,120)" stroke-linecap="butt">
            <text x="688.2197" xml:space="preserve" y="-11.7803" stroke="none">1943-07-10</text>
          </g>
        </g>
      </a>
    </g>
    <g id="y.node.3">
      <a target="_blank" xlink:type="simple" xlink:href="https://tigersmuseum.github.io/history/events/rhants/eventdiary.xhtml#N81329" xlink:show="new">
        <g fill="rgb(51,204,204)" text-rendering="geometricPrecision" shape-rendering="geometricPrecision" transform="matrix(1,0,0,1,134,120)" stroke="rgb(51,204,204)">
          <rect x="155.8145" y="30.4023" width="69.3828" rx="4" ry="4" height="30" stroke="none"/>
        </g>
        <g text-rendering="geometricPrecision" stroke-miterlimit="1.45" shape-rendering="geometricPrecision" transform="matrix(1,0,0,1,134,120)" stroke-linecap="butt">
          <rect x="155.8145" y="30.4023" fill="none" width="69.3828" rx="4" ry="4" height="30"/>
        </g>
        <g>
          <g text-rendering="geometricPrecision" stroke-miterlimit="1.45" shape-rendering="geometricPrecision" font-family="sans-serif" transform="matrix(1,0,0,1,134,120)" stroke-linecap="butt">
            <text x="-103.3271" xml:space="preserve" y="78.4668" stroke="none">1st Battalion (231 Brigade) made night attack over River Dittaino and captured 20 officers and 864 other ranks.</text>
          </g>
        </g>
        <g>
          <g text-rendering="geometricPrecision" stroke-miterlimit="1.45" shape-rendering="geometricPrecision" font-family="sans-serif" transform="matrix(1,0,0,1,134,120)" stroke-linecap="butt">
            <text x="159.8145" xml:space="preserve" y="50.1162" stroke="none">1943-07-19</text>
          </g>
        </g>
      </a>
    </g>
    <g id="y.node.4">
      <a target="_blank" xlink:type="simple" xlink:href="https://tigersmuseum.github.io/history/events/rhants/eventdiary.xhtml#N81360" xlink:show="new">
        <g fill="rgb(51,204,204)" text-rendering="geometricPrecision" shape-rendering="geometricPrecision" transform="matrix(1,0,0,1,134,120)" stroke="rgb(51,204,204)">
          <rect x="155.8145" y="98.1035" width="69.3828" rx="4" ry="4" height="30" stroke="none"/>
        </g>
        <g text-rendering="geometricPrecision" stroke-miterlimit="1.45" shape-rendering="geometricPrecision" transform="matrix(1,0,0,1,134,120)" stroke-linecap="butt">
          <rect x="155.8145" y="98.1035" fill="none" width="69.3828" rx="4" ry="4" height="30"/>
        </g>
        <g>
          <g text-rendering="geometricPrecision" stroke-miterlimit="1.45" shape-rendering="geometricPrecision" font-family="sans-serif" transform="matrix(1,0,0,1,134,120)" stroke-linecap="butt">
            <text x="-55.9805" xml:space="preserve" y="146.168" stroke="none">1st Battalion (231 Brigade) in the attack on Agira and Regalbuto against stubborn resistance.</text>
          </g>
        </g>
        <g>
          <g text-rendering="geometricPrecision" stroke-miterlimit="1.45" shape-rendering="geometricPrecision" font-family="sans-serif" transform="matrix(1,0,0,1,134,120)" stroke-linecap="butt">
            <text x="159.8145" xml:space="preserve" y="117.8174" stroke="none">1943-07-24</text>
          </g>
        </g>
      </a>
    </g>
    <g id="y.node.5">
      <a target="_blank" xlink:type="simple" xlink:href="https://tigersmuseum.github.io/history/events/rhants/eventdiary.xhtml#N81391" xlink:show="new">
        <g fill="rgb(51,204,204)" text-rendering="geometricPrecision" shape-rendering="geometricPrecision" transform="matrix(1,0,0,1,134,120)" stroke="rgb(51,204,204)">
          <rect x="155.8145" y="165.8047" width="69.3828" rx="4" ry="4" height="30" stroke="none"/>
        </g>
        <g text-rendering="geometricPrecision" stroke-miterlimit="1.45" shape-rendering="geometricPrecision" transform="matrix(1,0,0,1,134,120)" stroke-linecap="butt">
          <rect x="155.8145" y="165.8047" fill="none" width="69.3828" rx="4" ry="4" height="30"/>
        </g>
        <g>
          <g text-rendering="geometricPrecision" stroke-miterlimit="1.45" shape-rendering="geometricPrecision" font-family="sans-serif" transform="matrix(1,0,0,1,134,120)" stroke-linecap="butt">
            <text x="48.0938" xml:space="preserve" y="213.8691" stroke="none">1st Battalion in the completion of the capture of Sicily.</text>
          </g>
        </g>
        <g>
          <g text-rendering="geometricPrecision" stroke-miterlimit="1.45" shape-rendering="geometricPrecision" font-family="sans-serif" transform="matrix(1,0,0,1,134,120)" stroke-linecap="butt">
            <text x="159.8145" xml:space="preserve" y="185.5186" stroke="none">1943-08-17</text>
          </g>
        </g>
      </a>
    </g>
    <g id="y.edge.0">
      <g text-rendering="geometricPrecision" stroke-miterlimit="1.45" shape-rendering="geometricPrecision" transform="matrix(1,0,0,1,134,120)" stroke-linecap="butt">
        <path fill="none" d="M190.5059 -75 L190.5059 -45.3356"/>
        <path d="M190.5059 -37.3356 L195.5059 -49.3356 L190.5059 -46.3356 L185.5059 -49.3356 Z" stroke="none"/>
      </g>
    </g>
    <g id="y.edge.1">
      <g text-rendering="geometricPrecision" stroke-miterlimit="1.45" shape-rendering="geometricPrecision" transform="matrix(1,0,0,1,134,120)" stroke-linecap="butt">
        <path fill="none" d="M190.5059 -7.2988 L190.5059 22.3655"/>
        <path d="M190.5059 30.3655 L195.5059 18.3655 L190.5059 21.3655 L185.5059 18.3655 Z" stroke="none"/>
      </g>
    </g>
    <g id="y.edge.2">
      <g text-rendering="geometricPrecision" stroke-miterlimit="1.45" shape-rendering="geometricPrecision" transform="matrix(1,0,0,1,134,120)" stroke-linecap="butt">
        <path fill="none" d="M190.5059 60.4023 L190.5059 90.0667"/>
        <path d="M190.5059 98.0667 L195.5059 86.0667 L190.5059 89.0667 L185.5059 86.0667 Z" stroke="none"/>
      </g>
    </g>
    <g id="y.edge.3">
      <g text-rendering="geometricPrecision" stroke-miterlimit="1.45" shape-rendering="geometricPrecision" transform="matrix(1,0,0,1,134,120)" stroke-linecap="butt">
        <path fill="none" d="M190.5059 128.1035 L190.5059 157.7679"/>
        <path d="M190.5059 165.7679 L195.5059 153.7679 L190.5059 156.7679 L185.5059 153.7679 Z" stroke="none"/>
      </g>
    </g>
  </g>
</svg>
