<?xml version="1.0" encoding="UTF-8"?><svg xmlns="http://www.w3.org/2000/svg" xmlns:xlink="http://www.w3.org/1999/xlink" fill-opacity="1" color-rendering="auto" color-interpolation="auto" text-rendering="auto" stroke="black" stroke-linecap="square" width="1755" stroke-miterlimit="10" shape-rendering="auto" stroke-opacity="1" fill="black" stroke-dasharray="none" font-weight="normal" stroke-width="1" height="1315" font-family="'Dialog'" font-style="normal" stroke-linejoin="miter" font-size="12px" stroke-dashoffset="0" image-rendering="auto">
  <!--Generated by ySVG 2.5-->
  <defs id="genericDefs"/>
  <g>
    <defs id="defs1">
      <clipPath clipPathUnits="userSpaceOnUse" id="clipPath1">
        <path d="M0 0 L1755 0 L1755 1315 L0 1315 L0 0 Z"/>
      </clipPath>
      <clipPath clipPathUnits="userSpaceOnUse" id="clipPath2">
        <path d="M-15 -15 L1740 -15 L1740 1300 L-15 1300 L-15 -15 Z"/>
      </clipPath>
    </defs>
    <g fill="white" text-rendering="geometricPrecision" shape-rendering="geometricPrecision" transform="translate(15,15)" stroke="white">
      <rect x="-15" width="1755" height="1315" y="-15" clip-path="url(#clipPath2)" stroke="none"/>
    </g>
    <g id="y.node.0">
      <a target="_blank" xlink:type="simple" xlink:href="https://tigersmuseum.github.io/history/events/rhants/eventdiary.xhtml#N80493" xlink:show="new">
        <g fill="white" text-rendering="geometricPrecision" shape-rendering="geometricPrecision" transform="matrix(1,0,0,1,15,15)" stroke="white">
          <rect x="513.2686" y="0" width="69.3828" rx="4" ry="4" height="30" stroke="none"/>
        </g>
        <g text-rendering="geometricPrecision" stroke-miterlimit="1.45" shape-rendering="geometricPrecision" transform="matrix(1,0,0,1,15,15)" stroke-linecap="butt">
          <rect x="513.2686" y="0" fill="none" width="69.3828" rx="4" ry="4" height="30"/>
        </g>
        <g>
          <g text-rendering="geometricPrecision" stroke-miterlimit="1.45" shape-rendering="geometricPrecision" font-family="sans-serif" transform="matrix(1,0,0,1,15,15)" stroke-linecap="butt">
            <text x="306.4835" xml:space="preserve" y="48.0645" stroke="none">128th Brigade (1/4th, 2/4th and 5th Battalions) joined 46th (North Midland) Division in Kent.</text>
          </g>
        </g>
        <g>
          <g text-rendering="geometricPrecision" stroke-miterlimit="1.45" shape-rendering="geometricPrecision" font-family="sans-serif" transform="matrix(1,0,0,1,15,15)" stroke-linecap="butt">
            <text x="517.2686" xml:space="preserve" y="19.7139" stroke="none">1942-08-30</text>
          </g>
        </g>
      </a>
    </g>
    <g id="y.node.1">
      <a target="_blank" xlink:type="simple" xlink:href="https://tigersmuseum.github.io/history/events/rhants/eventdiary.xhtml#N80536" xlink:show="new">
        <g fill="white" text-rendering="geometricPrecision" shape-rendering="geometricPrecision" transform="matrix(1,0,0,1,15,15)" stroke="white">
          <rect x="1094.0746" y="0" width="69.3828" rx="4" ry="4" height="30" stroke="none"/>
        </g>
        <g text-rendering="geometricPrecision" stroke-miterlimit="1.45" shape-rendering="geometricPrecision" transform="matrix(1,0,0,1,15,15)" stroke-linecap="butt">
          <rect x="1094.0746" y="0" fill="none" width="69.3828" rx="4" ry="4" height="30"/>
        </g>
        <g>
          <g text-rendering="geometricPrecision" stroke-miterlimit="1.45" shape-rendering="geometricPrecision" font-family="sans-serif" transform="matrix(1,0,0,1,15,15)" stroke-linecap="butt">
            <text x="857.6263" xml:space="preserve" y="48.0645" stroke="none">2nd Battalion left Gourock, Scotland as part of the 1st Army to take part in the invasion of North Africa.</text>
          </g>
        </g>
        <g>
          <g text-rendering="geometricPrecision" stroke-miterlimit="1.45" shape-rendering="geometricPrecision" font-family="sans-serif" transform="matrix(1,0,0,1,15,15)" stroke-linecap="butt">
            <text x="1098.0746" xml:space="preserve" y="19.7139" stroke="none">1942-10-14</text>
          </g>
        </g>
      </a>
    </g>
    <g id="y.node.2">
      <a target="_blank" xlink:type="simple" xlink:href="https://tigersmuseum.github.io/history/events/rhants/eventdiary.xhtml#N80570" xlink:show="new">
        <g fill="rgb(255,153,0)" text-rendering="geometricPrecision" shape-rendering="geometricPrecision" transform="matrix(1,0,0,1,15,15)" stroke="rgb(255,153,0)">
          <rect x="1111.4202" y="201.8934" width="69.3828" rx="4" ry="4" height="30" stroke="none"/>
        </g>
        <g text-rendering="geometricPrecision" stroke-miterlimit="1.45" shape-rendering="geometricPrecision" transform="matrix(1,0,0,1,15,15)" stroke-linecap="butt">
          <rect x="1111.4202" y="201.8934" fill="none" width="69.3828" rx="4" ry="4" height="30"/>
        </g>
        <g>
          <g text-rendering="geometricPrecision" stroke-miterlimit="1.45" shape-rendering="geometricPrecision" font-family="sans-serif" transform="matrix(1,0,0,1,15,15)" stroke-linecap="butt">
            <text x="931.3362" xml:space="preserve" y="249.9579" stroke="none">2nd Battalion in Battle of Tebourba; Maj HW Le Patourel awarded Victoria Cross.</text>
          </g>
        </g>
        <g>
          <g text-rendering="geometricPrecision" stroke-miterlimit="1.45" shape-rendering="geometricPrecision" font-family="sans-serif" transform="matrix(1,0,0,1,15,15)" stroke-linecap="butt">
            <text x="1115.4202" xml:space="preserve" y="221.6073" stroke="none">1942-11-30</text>
          </g>
        </g>
      </a>
    </g>
    <g id="y.node.3">
      <a target="_blank" xlink:type="simple" xlink:href="https://tigersmuseum.github.io/history/events/rhants/eventdiary.xhtml#N80638" xlink:show="new">
        <g fill="white" text-rendering="geometricPrecision" shape-rendering="geometricPrecision" transform="matrix(1,0,0,1,15,15)" stroke="white">
          <rect x="530.6143" y="201.8934" width="69.3828" rx="4" ry="4" height="30" stroke="none"/>
        </g>
        <g text-rendering="geometricPrecision" stroke-miterlimit="1.45" shape-rendering="geometricPrecision" transform="matrix(1,0,0,1,15,15)" stroke-linecap="butt">
          <rect x="530.6143" y="201.8934" fill="none" width="69.3828" rx="4" ry="4" height="30"/>
        </g>
        <g>
          <g text-rendering="geometricPrecision" stroke-miterlimit="1.45" shape-rendering="geometricPrecision" font-family="sans-serif" transform="matrix(1,0,0,1,15,15)" stroke-linecap="butt">
            <text x="282.8252" xml:space="preserve" y="249.9579" stroke="none">128th Bde (1/4th, 2/4th &amp; 5th Bns) embarked at Gourock as part of 46th Div to join the 1st Army in Tunisia.</text>
          </g>
        </g>
        <g>
          <g text-rendering="geometricPrecision" stroke-miterlimit="1.45" shape-rendering="geometricPrecision" font-family="sans-serif" transform="matrix(1,0,0,1,15,15)" stroke-linecap="butt">
            <text x="534.6143" xml:space="preserve" y="221.6073" stroke="none">1943-01-06</text>
          </g>
        </g>
      </a>
    </g>
    <g id="y.node.4">
      <a target="_blank" xlink:type="simple" xlink:href="https://tigersmuseum.github.io/history/events/rhants/eventdiary.xhtml#N80684" xlink:show="new">
        <g fill="rgb(255,153,0)" text-rendering="geometricPrecision" shape-rendering="geometricPrecision" transform="matrix(1,0,0,1,15,15)" stroke="rgb(255,153,0)">
          <rect x="530.6143" y="269.5946" width="69.3828" rx="4" ry="4" height="30" stroke="none"/>
        </g>
        <g text-rendering="geometricPrecision" stroke-miterlimit="1.45" shape-rendering="geometricPrecision" transform="matrix(1,0,0,1,15,15)" stroke-linecap="butt">
          <rect x="530.6143" y="269.5946" fill="none" width="69.3828" rx="4" ry="4" height="30"/>
        </g>
        <g>
          <g text-rendering="geometricPrecision" stroke-miterlimit="1.45" shape-rendering="geometricPrecision" font-family="sans-serif" transform="matrix(1,0,0,1,15,15)" stroke-linecap="butt">
            <text x="379.5342" xml:space="preserve" y="317.659" stroke="none">128th Bde (1/4th, 2/4th &amp; 5th Bns) disembarked at Bone, North Africa.</text>
          </g>
        </g>
        <g>
          <g text-rendering="geometricPrecision" stroke-miterlimit="1.45" shape-rendering="geometricPrecision" font-family="sans-serif" transform="matrix(1,0,0,1,15,15)" stroke-linecap="butt">
            <text x="534.6143" xml:space="preserve" y="289.3084" stroke="none">1943-01-19</text>
          </g>
        </g>
      </a>
    </g>
    <g id="y.node.5">
      <a target="_blank" xlink:type="simple" xlink:href="https://tigersmuseum.github.io/history/events/rhants/eventdiary.xhtml#N80724" xlink:show="new">
        <g fill="rgb(255,153,0)" text-rendering="geometricPrecision" shape-rendering="geometricPrecision" transform="matrix(1,0,0,1,15,15)" stroke="rgb(255,153,0)">
          <rect x="530.6143" y="337.2957" width="69.3828" rx="4" ry="4" height="30" stroke="none"/>
        </g>
        <g text-rendering="geometricPrecision" stroke-miterlimit="1.45" shape-rendering="geometricPrecision" transform="matrix(1,0,0,1,15,15)" stroke-linecap="butt">
          <rect x="530.6143" y="337.2957" fill="none" width="69.3828" rx="4" ry="4" height="30"/>
        </g>
        <g>
          <g text-rendering="geometricPrecision" stroke-miterlimit="1.45" shape-rendering="geometricPrecision" font-family="sans-serif" transform="matrix(1,0,0,1,15,15)" stroke-linecap="butt">
            <text x="18.0283" xml:space="preserve" y="385.3602" stroke="none">128th Bde (46th Div) in positions covering vital communication centres of Beja. 2nd/4th &amp; 1st/4th Bns astride Hunts Gap, 5th Bn and 155 Bty RA in isolated positions at Sidi Nisr, 12 miles NE towards Mateur.</text>
          </g>
        </g>
        <g>
          <g text-rendering="geometricPrecision" stroke-miterlimit="1.45" shape-rendering="geometricPrecision" font-family="sans-serif" transform="matrix(1,0,0,1,15,15)" stroke-linecap="butt">
            <text x="534.6143" xml:space="preserve" y="357.0096" stroke="none">1943-02-01</text>
          </g>
        </g>
      </a>
    </g>
    <g id="y.node.6">
      <a target="_blank" xlink:type="simple" xlink:href="https://tigersmuseum.github.io/history/events/rhants/eventdiary.xhtml#N80773" xlink:show="new">
        <g fill="rgb(255,153,0)" text-rendering="geometricPrecision" shape-rendering="geometricPrecision" transform="matrix(1,0,0,1,15,15)" stroke="rgb(255,153,0)">
          <rect x="1111.4202" y="269.5946" width="69.3828" rx="4" ry="4" height="30" stroke="none"/>
        </g>
        <g text-rendering="geometricPrecision" stroke-miterlimit="1.45" shape-rendering="geometricPrecision" transform="matrix(1,0,0,1,15,15)" stroke-linecap="butt">
          <rect x="1111.4202" y="269.5946" fill="none" width="69.3828" rx="4" ry="4" height="30"/>
        </g>
        <g>
          <g text-rendering="geometricPrecision" stroke-miterlimit="1.45" shape-rendering="geometricPrecision" font-family="sans-serif" transform="matrix(1,0,0,1,15,15)" stroke-linecap="butt">
            <text x="819.6068" xml:space="preserve" y="317.659" stroke="none">2nd Bn (re-formed after the battle of Tebourba) rushed South from Munchar to stop German attack through Kasserine Gap.</text>
          </g>
        </g>
        <g>
          <g text-rendering="geometricPrecision" stroke-miterlimit="1.45" shape-rendering="geometricPrecision" font-family="sans-serif" transform="matrix(1,0,0,1,15,15)" stroke-linecap="butt">
            <text x="1115.4202" xml:space="preserve" y="289.3084" stroke="none">1943-02-14</text>
          </g>
        </g>
      </a>
    </g>
    <g id="y.node.7">
      <a target="_blank" xlink:type="simple" xlink:href="https://tigersmuseum.github.io/history/events/rhants/eventdiary.xhtml#N80804" xlink:show="new">
        <g fill="rgb(255,153,0)" text-rendering="geometricPrecision" shape-rendering="geometricPrecision" transform="matrix(1,0,0,1,15,15)" stroke="rgb(255,153,0)">
          <rect x="530.6143" y="404.9969" width="69.3828" rx="4" ry="4" height="30" stroke="none"/>
        </g>
        <g text-rendering="geometricPrecision" stroke-miterlimit="1.45" shape-rendering="geometricPrecision" transform="matrix(1,0,0,1,15,15)" stroke-linecap="butt">
          <rect x="530.6143" y="404.9969" fill="none" width="69.3828" rx="4" ry="4" height="30"/>
        </g>
        <g>
          <g text-rendering="geometricPrecision" stroke-miterlimit="1.45" shape-rendering="geometricPrecision" font-family="sans-serif" transform="matrix(1,0,0,1,15,15)" stroke-linecap="butt">
            <text x="200.7734" xml:space="preserve" y="453.0614" stroke="none">Battle of Sidi Nsir. Gallant delaying action by 5th Bn and 155 Bty, 172 Fd Regt RA overrun by enemy Armoured Force advancing on Beja.</text>
          </g>
        </g>
        <g>
          <g text-rendering="geometricPrecision" stroke-miterlimit="1.45" shape-rendering="geometricPrecision" font-family="sans-serif" transform="matrix(1,0,0,1,15,15)" stroke-linecap="butt">
            <text x="534.6143" xml:space="preserve" y="424.7108" stroke="none">1943-02-26</text>
          </g>
        </g>
      </a>
    </g>
    <g id="y.node.8">
      <a target="_blank" xlink:type="simple" xlink:href="https://tigersmuseum.github.io/history/events/rhants/eventdiary.xhtml#N80835" xlink:show="new">
        <g fill="rgb(255,153,0)" text-rendering="geometricPrecision" shape-rendering="geometricPrecision" transform="matrix(1,0,0,1,15,15)" stroke="rgb(255,153,0)">
          <rect x="530.6143" y="472.6981" width="69.3828" rx="4" ry="4" height="30" stroke="none"/>
        </g>
        <g text-rendering="geometricPrecision" stroke-miterlimit="1.45" shape-rendering="geometricPrecision" transform="matrix(1,0,0,1,15,15)" stroke-linecap="butt">
          <rect x="530.6143" y="472.6981" fill="none" width="69.3828" rx="4" ry="4" height="30"/>
        </g>
        <g>
          <g text-rendering="geometricPrecision" stroke-miterlimit="1.45" shape-rendering="geometricPrecision" font-family="sans-serif" transform="matrix(1,0,0,1,15,15)" stroke-linecap="butt">
            <text x="2" xml:space="preserve" y="520.7625" stroke="none">Battle of Hunts Gap. 2/4th, 1/4th and remnants of 5th Bn (from Sidi Nisr) successfully held up strong enemy armoured and infantry attacks on Beja. In four days’ fighting, 2/4th Bn reduced to one company strength.</text>
          </g>
        </g>
        <g>
          <g text-rendering="geometricPrecision" stroke-miterlimit="1.45" shape-rendering="geometricPrecision" font-family="sans-serif" transform="matrix(1,0,0,1,15,15)" stroke-linecap="butt">
            <text x="534.6143" xml:space="preserve" y="492.412" stroke="none">1943-02-27</text>
          </g>
        </g>
      </a>
    </g>
    <g id="y.node.9">
      <a target="_blank" xlink:type="simple" xlink:href="https://tigersmuseum.github.io/history/events/rhants/eventdiary.xhtml#N80875" xlink:show="new">
        <g fill="rgb(255,153,0)" text-rendering="geometricPrecision" shape-rendering="geometricPrecision" transform="matrix(1,0,0,1,15,15)" stroke="rgb(255,153,0)">
          <rect x="1094.0746" y="678.9279" width="69.3828" rx="4" ry="4" height="30" stroke="none"/>
        </g>
        <g text-rendering="geometricPrecision" stroke-miterlimit="1.45" shape-rendering="geometricPrecision" transform="matrix(1,0,0,1,15,15)" stroke-linecap="butt">
          <rect x="1094.0746" y="678.9279" fill="none" width="69.3828" rx="4" ry="4" height="30"/>
        </g>
        <g>
          <g text-rendering="geometricPrecision" stroke-miterlimit="1.45" shape-rendering="geometricPrecision" font-family="sans-serif" transform="matrix(1,0,0,1,15,15)" stroke-linecap="butt">
            <text x="782.8871" xml:space="preserve" y="726.9924" stroke="none">2nd Bn joined 128th Bde in Hunts Gap and with 1/4th Bn made several unsuccessful attempts to regain positions lost on 28th Feb.</text>
          </g>
        </g>
        <g>
          <g text-rendering="geometricPrecision" stroke-miterlimit="1.45" shape-rendering="geometricPrecision" font-family="sans-serif" transform="matrix(1,0,0,1,15,15)" stroke-linecap="butt">
            <text x="1098.0746" xml:space="preserve" y="698.6418" stroke="none">1943-03-01</text>
          </g>
        </g>
      </a>
    </g>
    <g id="y.node.10">
      <a target="_blank" xlink:type="simple" xlink:href="https://tigersmuseum.github.io/history/events/rhants/eventdiary.xhtml#N80952" xlink:show="new">
        <g fill="rgb(255,153,0)" text-rendering="geometricPrecision" shape-rendering="geometricPrecision" transform="matrix(1,0,0,1,15,15)" stroke="rgb(255,153,0)">
          <rect x="1094.0746" y="746.6291" width="69.3828" rx="4" ry="4" height="30" stroke="none"/>
        </g>
        <g text-rendering="geometricPrecision" stroke-miterlimit="1.45" shape-rendering="geometricPrecision" transform="matrix(1,0,0,1,15,15)" stroke-linecap="butt">
          <rect x="1094.0746" y="746.6291" fill="none" width="69.3828" rx="4" ry="4" height="30"/>
        </g>
        <g>
          <g text-rendering="geometricPrecision" stroke-miterlimit="1.45" shape-rendering="geometricPrecision" font-family="sans-serif" transform="matrix(1,0,0,1,15,15)" stroke-linecap="butt">
            <text x="535.4017" xml:space="preserve" y="794.6935" stroke="none">128th Bde. 1/4th and 2/4th Bns, after long night advance, crossed River Marguellin and captured Pichon. The Bde then advanced 38 miles towards Kairouan after having spent the previous month in static waterlogged posns.</text>
          </g>
        </g>
        <g>
          <g text-rendering="geometricPrecision" stroke-miterlimit="1.45" shape-rendering="geometricPrecision" font-family="sans-serif" transform="matrix(1,0,0,1,15,15)" stroke-linecap="butt">
            <text x="1098.0746" xml:space="preserve" y="766.343" stroke="none">1943-04-08</text>
          </g>
        </g>
      </a>
    </g>
    <g id="y.node.11">
      <a target="_blank" xlink:type="simple" xlink:href="https://tigersmuseum.github.io/history/events/rhants/eventdiary.xhtml#N80989" xlink:show="new">
        <g fill="rgb(255,153,0)" text-rendering="geometricPrecision" shape-rendering="geometricPrecision" transform="matrix(1,0,0,1,15,15)" stroke="rgb(255,153,0)">
          <rect x="1094.0746" y="814.3303" width="69.3828" rx="4" ry="4" height="30" stroke="none"/>
        </g>
        <g text-rendering="geometricPrecision" stroke-miterlimit="1.45" shape-rendering="geometricPrecision" transform="matrix(1,0,0,1,15,15)" stroke-linecap="butt">
          <rect x="1094.0746" y="814.3303" fill="none" width="69.3828" rx="4" ry="4" height="30"/>
        </g>
        <g>
          <g text-rendering="geometricPrecision" stroke-miterlimit="1.45" shape-rendering="geometricPrecision" font-family="sans-serif" transform="matrix(1,0,0,1,15,15)" stroke-linecap="butt">
            <text x="907.3051" xml:space="preserve" y="862.3947" stroke="none">128th Bde rejoined 46th Div at El Aroussa to prepare for attack North of Bou Arada.</text>
          </g>
        </g>
        <g>
          <g text-rendering="geometricPrecision" stroke-miterlimit="1.45" shape-rendering="geometricPrecision" font-family="sans-serif" transform="matrix(1,0,0,1,15,15)" stroke-linecap="butt">
            <text x="1098.0746" xml:space="preserve" y="834.0441" stroke="none">1943-04-14</text>
          </g>
        </g>
      </a>
    </g>
    <g id="y.node.12">
      <a target="_blank" xlink:type="simple" xlink:href="https://tigersmuseum.github.io/history/events/rhants/eventdiary.xhtml#N81023" xlink:show="new">
        <g fill="rgb(255,153,0)" text-rendering="geometricPrecision" shape-rendering="geometricPrecision" transform="matrix(1,0,0,1,15,15)" stroke="rgb(255,153,0)">
          <rect x="1094.0746" y="882.0314" width="69.3828" rx="4" ry="4" height="30" stroke="none"/>
        </g>
        <g text-rendering="geometricPrecision" stroke-miterlimit="1.45" shape-rendering="geometricPrecision" transform="matrix(1,0,0,1,15,15)" stroke-linecap="butt">
          <rect x="1094.0746" y="882.0314" fill="none" width="69.3828" rx="4" ry="4" height="30"/>
        </g>
        <g>
          <g text-rendering="geometricPrecision" stroke-miterlimit="1.45" shape-rendering="geometricPrecision" font-family="sans-serif" transform="matrix(1,0,0,1,15,15)" stroke-linecap="butt">
            <text x="607.4457" xml:space="preserve" y="930.0959" stroke="none">Battle of Bou Arada. Night attack by 128th Bde (1/4th, 2/4th and 5th Bns) under a heavy barrage on strongly prepared positions held by the Hermann Goering Division on Melhalla and Seba Argout.</text>
          </g>
        </g>
        <g>
          <g text-rendering="geometricPrecision" stroke-miterlimit="1.45" shape-rendering="geometricPrecision" font-family="sans-serif" transform="matrix(1,0,0,1,15,15)" stroke-linecap="butt">
            <text x="1098.0746" xml:space="preserve" y="901.7453" stroke="none">1943-04-22</text>
          </g>
        </g>
      </a>
    </g>
    <g id="y.node.13">
      <a target="_blank" xlink:type="simple" xlink:href="https://tigersmuseum.github.io/history/events/rhants/eventdiary.xhtml#N81097" xlink:show="new">
        <g fill="rgb(255,153,0)" text-rendering="geometricPrecision" shape-rendering="geometricPrecision" transform="matrix(1,0,0,1,15,15)" stroke="rgb(255,153,0)">
          <rect x="1094.0746" y="949.7326" width="69.3828" rx="4" ry="4" height="30" stroke="none"/>
        </g>
        <g text-rendering="geometricPrecision" stroke-miterlimit="1.45" shape-rendering="geometricPrecision" transform="matrix(1,0,0,1,15,15)" stroke-linecap="butt">
          <rect x="1094.0746" y="949.7326" fill="none" width="69.3828" rx="4" ry="4" height="30"/>
        </g>
        <g>
          <g text-rendering="geometricPrecision" stroke-miterlimit="1.45" shape-rendering="geometricPrecision" font-family="sans-serif" transform="matrix(1,0,0,1,15,15)" stroke-linecap="butt">
            <text x="845.2455" xml:space="preserve" y="997.7971" stroke="none">2/4th Bn left 128 Bde at Tebourba for combined operations training at Bougie and was replaced by 2nd Bn.</text>
          </g>
        </g>
        <g>
          <g text-rendering="geometricPrecision" stroke-miterlimit="1.45" shape-rendering="geometricPrecision" font-family="sans-serif" transform="matrix(1,0,0,1,15,15)" stroke-linecap="butt">
            <text x="1098.0746" xml:space="preserve" y="969.4465" stroke="none">1943-05-06</text>
          </g>
        </g>
      </a>
    </g>
    <g id="y.node.14">
      <a target="_blank" xlink:type="simple" xlink:href="https://tigersmuseum.github.io/history/events/rhants/eventdiary.xhtml#N81131" xlink:show="new">
        <g fill="rgb(255,153,0)" text-rendering="geometricPrecision" shape-rendering="geometricPrecision" transform="matrix(1,0,0,1,15,15)" stroke="rgb(255,153,0)">
          <rect x="1292.546" y="1163.8409" width="69.3828" rx="4" ry="4" height="30" stroke="none"/>
        </g>
        <g text-rendering="geometricPrecision" stroke-miterlimit="1.45" shape-rendering="geometricPrecision" transform="matrix(1,0,0,1,15,15)" stroke-linecap="butt">
          <rect x="1292.546" y="1163.8409" fill="none" width="69.3828" rx="4" ry="4" height="30"/>
        </g>
        <g>
          <g text-rendering="geometricPrecision" stroke-miterlimit="1.45" shape-rendering="geometricPrecision" font-family="sans-serif" transform="matrix(1,0,0,1,15,15)" stroke-linecap="butt">
            <text x="932.3448" xml:space="preserve" y="1211.9054" stroke="none">128 Bde (2nd, 1/4th and 5th Bns) took part in the pursuit and final surrender of Von Arnem’s forces in Cap Bon area. End of North African Campaign.</text>
          </g>
        </g>
        <g>
          <g text-rendering="geometricPrecision" stroke-miterlimit="1.45" shape-rendering="geometricPrecision" font-family="sans-serif" transform="matrix(1,0,0,1,15,15)" stroke-linecap="butt">
            <text x="1296.546" xml:space="preserve" y="1183.5548" stroke="none">1943-05-11</text>
          </g>
        </g>
      </a>
    </g>
    <g id="y.node.15">
      <a target="_blank" xlink:type="simple" xlink:href="https://tigersmuseum.github.io/history/events/rhants/eventdiary.xhtml#N81168" xlink:show="new">
        <g fill="rgb(255,153,0)" text-rendering="geometricPrecision" shape-rendering="geometricPrecision" transform="matrix(1,0,0,1,15,15)" stroke="rgb(255,153,0)">
          <rect x="507.7722" y="1163.8409" width="52.0391" rx="4" ry="4" height="30" stroke="none"/>
        </g>
        <g text-rendering="geometricPrecision" stroke-miterlimit="1.45" shape-rendering="geometricPrecision" transform="matrix(1,0,0,1,15,15)" stroke-linecap="butt">
          <rect x="507.7722" y="1163.8409" fill="none" width="52.0391" rx="4" ry="4" height="30"/>
        </g>
        <g>
          <g text-rendering="geometricPrecision" stroke-miterlimit="1.45" shape-rendering="geometricPrecision" font-family="sans-serif" transform="matrix(1,0,0,1,15,15)" stroke-linecap="butt">
            <text x="169.239" xml:space="preserve" y="1211.9054" stroke="none">2/4th Bn – combined operations training with 20 and 21 Beach Groups at Oued Marsa and Bougie in preparation for the invasion of Sicily.</text>
          </g>
        </g>
        <g>
          <g text-rendering="geometricPrecision" stroke-miterlimit="1.45" shape-rendering="geometricPrecision" font-family="sans-serif" transform="matrix(1,0,0,1,15,15)" stroke-linecap="butt">
            <text x="511.7722" xml:space="preserve" y="1183.5548" stroke="none">1943-06</text>
          </g>
        </g>
      </a>
    </g>
    <g id="y.node.16">
      <a target="_blank" xlink:type="simple" xlink:href="https://tigersmuseum.github.io/history/events/rhants/eventdiary.xhtml#N81199" xlink:show="new">
        <g fill="rgb(255,153,0)" text-rendering="geometricPrecision" shape-rendering="geometricPrecision" transform="matrix(1,0,0,1,15,15)" stroke="rgb(255,153,0)">
          <rect x="1301.2179" y="1231.5421" width="52.0391" rx="4" ry="4" height="30" stroke="none"/>
        </g>
        <g text-rendering="geometricPrecision" stroke-miterlimit="1.45" shape-rendering="geometricPrecision" transform="matrix(1,0,0,1,15,15)" stroke-linecap="butt">
          <rect x="1301.2179" y="1231.5421" fill="none" width="52.0391" rx="4" ry="4" height="30"/>
        </g>
        <g>
          <g text-rendering="geometricPrecision" stroke-miterlimit="1.45" shape-rendering="geometricPrecision" font-family="sans-serif" transform="matrix(1,0,0,1,15,15)" stroke-linecap="butt">
            <text x="1010.7198" xml:space="preserve" y="1279.6066" stroke="none">128 Brigade (2nd, 1/4th and 5th Battalions), Combined Operations training at Djidjelli in preparation for invasion of Italy.</text>
          </g>
        </g>
        <g>
          <g text-rendering="geometricPrecision" stroke-miterlimit="1.45" shape-rendering="geometricPrecision" font-family="sans-serif" transform="matrix(1,0,0,1,15,15)" stroke-linecap="butt">
            <text x="1305.2179" xml:space="preserve" y="1251.256" stroke="none">1943-07</text>
          </g>
        </g>
      </a>
    </g>
    <g id="y.edge.1">
      <g text-rendering="geometricPrecision" stroke-miterlimit="1.45" shape-rendering="geometricPrecision" transform="matrix(1,0,0,1,15,15)" stroke-linecap="butt">
        <path fill="none" d="M1146.1117 30 L1146.1116 193.8514"/>
        <path d="M1146.1116 201.8514 L1151.1116 189.8514 L1146.1116 192.8514 L1141.1116 189.8514 Z" stroke="none"/>
      </g>
    </g>
    <g id="y.edge.0">
      <g text-rendering="geometricPrecision" stroke-miterlimit="1.45" shape-rendering="geometricPrecision" transform="matrix(1,0,0,1,15,15)" stroke-linecap="butt">
        <path fill="none" d="M547.96 30 L547.96 193.8514"/>
        <path d="M547.96 201.8514 L552.96 189.8514 L547.96 192.8514 L542.96 189.8514 Z" stroke="none"/>
      </g>
    </g>
    <g id="y.edge.2">
      <g text-rendering="geometricPrecision" stroke-miterlimit="1.45" shape-rendering="geometricPrecision" transform="matrix(1,0,0,1,15,15)" stroke-linecap="butt">
        <path fill="none" d="M1111.4203 30 L1111.4203 53.2012 L582.6514 186.3934 L582.6514 193.8631"/>
        <path d="M582.6514 201.8631 L587.6514 189.8631 L582.6514 192.8631 L577.6514 189.8631 Z" stroke="none"/>
      </g>
    </g>
    <g id="y.edge.4">
      <g text-rendering="geometricPrecision" stroke-miterlimit="1.45" shape-rendering="geometricPrecision" transform="matrix(1,0,0,1,15,15)" stroke-linecap="butt">
        <path fill="none" d="M565.3057 231.8934 L565.3057 261.5577"/>
        <path d="M565.3057 269.5577 L570.3057 257.5577 L565.3057 260.5577 L560.3057 257.5577 Z" stroke="none"/>
      </g>
    </g>
    <g id="y.edge.5">
      <g text-rendering="geometricPrecision" stroke-miterlimit="1.45" shape-rendering="geometricPrecision" transform="matrix(1,0,0,1,15,15)" stroke-linecap="butt">
        <path fill="none" d="M565.3057 299.5946 L565.3057 329.2589"/>
        <path d="M565.3057 337.2589 L570.3057 325.2589 L565.3057 328.2589 L560.3057 325.2589 Z" stroke="none"/>
      </g>
    </g>
    <g id="y.edge.3">
      <g text-rendering="geometricPrecision" stroke-miterlimit="1.45" shape-rendering="geometricPrecision" transform="matrix(1,0,0,1,15,15)" stroke-linecap="butt">
        <path fill="none" d="M1146.1116 231.8934 L1146.1116 261.5577"/>
        <path d="M1146.1116 269.5577 L1151.1116 257.5577 L1146.1116 260.5577 L1141.1116 257.5577 Z" stroke="none"/>
      </g>
    </g>
    <g id="y.edge.6">
      <g text-rendering="geometricPrecision" stroke-miterlimit="1.45" shape-rendering="geometricPrecision" transform="matrix(1,0,0,1,15,15)" stroke-linecap="butt">
        <path fill="none" d="M565.3057 367.2957 L565.3057 396.9601"/>
        <path d="M565.3057 404.9601 L570.3057 392.9601 L565.3057 395.9601 L560.3057 392.9601 Z" stroke="none"/>
      </g>
    </g>
    <g id="y.edge.8">
      <g text-rendering="geometricPrecision" stroke-miterlimit="1.45" shape-rendering="geometricPrecision" transform="matrix(1,0,0,1,15,15)" stroke-linecap="butt">
        <path fill="none" d="M565.3057 434.9969 L565.3057 464.6613"/>
        <path d="M565.3057 472.6613 L570.3057 460.6613 L565.3057 463.6613 L560.3057 460.6613 Z" stroke="none"/>
      </g>
    </g>
    <g id="y.edge.7">
      <g text-rendering="geometricPrecision" stroke-miterlimit="1.45" shape-rendering="geometricPrecision" transform="matrix(1,0,0,1,15,15)" stroke-linecap="butt">
        <path fill="none" d="M1146.1116 299.5946 L1146.1117 670.8816"/>
        <path d="M1146.1117 678.8816 L1151.1117 666.8816 L1146.1117 669.8816 L1141.1117 666.8816 Z" stroke="none"/>
      </g>
    </g>
    <g id="y.edge.9">
      <g text-rendering="geometricPrecision" stroke-miterlimit="1.45" shape-rendering="geometricPrecision" transform="matrix(1,0,0,1,15,15)" stroke-linecap="butt">
        <path fill="none" d="M565.3057 502.6981 L565.3057 525.8992 L1111.4203 663.4279 L1111.4203 670.8976"/>
        <path d="M1111.4203 678.8976 L1116.4203 666.8976 L1111.4203 669.8976 L1106.4203 666.8976 Z" stroke="none"/>
      </g>
    </g>
    <g id="y.edge.10">
      <g text-rendering="geometricPrecision" stroke-miterlimit="1.45" shape-rendering="geometricPrecision" transform="matrix(1,0,0,1,15,15)" stroke-linecap="butt">
        <path fill="none" d="M1128.766 708.9279 L1128.766 738.5923"/>
        <path d="M1128.766 746.5923 L1133.766 734.5923 L1128.766 737.5923 L1123.766 734.5923 Z" stroke="none"/>
      </g>
    </g>
    <g id="y.edge.11">
      <g text-rendering="geometricPrecision" stroke-miterlimit="1.45" shape-rendering="geometricPrecision" transform="matrix(1,0,0,1,15,15)" stroke-linecap="butt">
        <path fill="none" d="M1128.766 776.6291 L1128.766 806.2935"/>
        <path d="M1128.766 814.2935 L1133.766 802.2935 L1128.766 805.2935 L1123.766 802.2935 Z" stroke="none"/>
      </g>
    </g>
    <g id="y.edge.12">
      <g text-rendering="geometricPrecision" stroke-miterlimit="1.45" shape-rendering="geometricPrecision" transform="matrix(1,0,0,1,15,15)" stroke-linecap="butt">
        <path fill="none" d="M1128.766 844.3303 L1128.766 873.9946"/>
        <path d="M1128.766 881.9946 L1133.766 869.9946 L1128.766 872.9946 L1123.766 869.9946 Z" stroke="none"/>
      </g>
    </g>
    <g id="y.edge.13">
      <g text-rendering="geometricPrecision" stroke-miterlimit="1.45" shape-rendering="geometricPrecision" transform="matrix(1,0,0,1,15,15)" stroke-linecap="butt">
        <path fill="none" d="M1128.766 912.0314 L1128.766 941.6958"/>
        <path d="M1128.766 949.6958 L1133.766 937.6958 L1128.766 940.6958 L1123.766 937.6958 Z" stroke="none"/>
      </g>
    </g>
    <g id="y.edge.15">
      <g text-rendering="geometricPrecision" stroke-miterlimit="1.45" shape-rendering="geometricPrecision" transform="matrix(1,0,0,1,15,15)" stroke-linecap="butt">
        <path fill="none" d="M1146.1117 979.7326 L1146.1117 1002.9338 L1327.2374 1148.3409 L1327.2374 1155.8107"/>
        <path d="M1327.2374 1163.8107 L1332.2374 1151.8107 L1327.2374 1154.8107 L1322.2374 1151.8107 Z" stroke="none"/>
      </g>
    </g>
    <g id="y.edge.14">
      <g text-rendering="geometricPrecision" stroke-miterlimit="1.45" shape-rendering="geometricPrecision" transform="matrix(1,0,0,1,15,15)" stroke-linecap="butt">
        <path fill="none" d="M1111.4203 979.7326 L1111.4203 1002.9338 L533.7917 1148.3409 L533.7917 1155.8107"/>
        <path d="M533.7917 1163.8107 L538.7917 1151.8107 L533.7917 1154.8107 L528.7917 1151.8107 Z" stroke="none"/>
      </g>
    </g>
    <g id="y.edge.16">
      <g text-rendering="geometricPrecision" stroke-miterlimit="1.45" shape-rendering="geometricPrecision" transform="matrix(1,0,0,1,15,15)" stroke-linecap="butt">
        <path fill="none" d="M1327.2374 1193.8409 L1327.2374 1223.5052"/>
        <path d="M1327.2374 1231.5052 L1332.2374 1219.5052 L1327.2374 1222.5052 L1322.2374 1219.5052 Z" stroke="none"/>
      </g>
    </g>
  </g>
</svg>
