<?xml version="1.0" encoding="UTF-8"?><svg xmlns="http://www.w3.org/2000/svg" xmlns:xlink="http://www.w3.org/1999/xlink" fill-opacity="1" color-rendering="auto" color-interpolation="auto" text-rendering="auto" stroke="black" stroke-linecap="square" width="912" stroke-miterlimit="10" shape-rendering="auto" stroke-opacity="1" fill="black" stroke-dasharray="none" font-weight="normal" stroke-width="1" height="439" font-family="'Dialog'" font-style="normal" stroke-linejoin="miter" font-size="12px" stroke-dashoffset="0" image-rendering="auto">
  <!--Generated by ySVG 2.5-->
  <defs id="genericDefs"/>
  <g>
    <defs id="defs1">
      <clipPath clipPathUnits="userSpaceOnUse" id="clipPath1">
        <path d="M0 0 L912 0 L912 439 L0 439 L0 0 Z"/>
      </clipPath>
      <clipPath clipPathUnits="userSpaceOnUse" id="clipPath2">
        <path d="M-406 -15 L506 -15 L506 424 L-406 424 L-406 -15 Z"/>
      </clipPath>
    </defs>
    <g fill="white" text-rendering="geometricPrecision" shape-rendering="geometricPrecision" transform="translate(406,15)" stroke="white">
      <rect x="-406" width="912" height="439" y="-15" clip-path="url(#clipPath2)" stroke="none"/>
    </g>
    <g id="y.node.0">
      <a target="_blank" xlink:type="simple" xlink:href="https://tigersmuseum.github.io/history/events/rhants/eventdiary.xhtml#AK0001" xlink:show="new">
        <g fill="silver" text-rendering="geometricPrecision" shape-rendering="geometricPrecision" transform="matrix(1,0,0,1,406,15)" stroke="silver">
          <rect x="14" y="0" width="71.3828" rx="4" ry="4" height="35.6" stroke="none"/>
        </g>
        <g text-rendering="geometricPrecision" stroke-miterlimit="1.45" shape-rendering="geometricPrecision" transform="matrix(1,0,0,1,406,15)" stroke-linecap="butt">
          <rect x="14" y="0" fill="none" width="71.3828" rx="4" ry="4" height="35.6"/>
        </g>
        <g>
          <g text-rendering="geometricPrecision" stroke-miterlimit="1.45" shape-rendering="geometricPrecision" font-family="sans-serif" transform="matrix(1,0,0,1,406,15)" stroke-linecap="butt">
            <text x="-88.0449" xml:space="preserve" y="53.6645" stroke="none">1st Bn left Egypt for Malta, joining 1st Malta Inf Bde.</text>
          </g>
        </g>
        <g>
          <g text-rendering="geometricPrecision" stroke-miterlimit="1.45" shape-rendering="geometricPrecision" font-family="sans-serif" transform="matrix(1,0,0,1,406,15)" stroke-linecap="butt">
            <text x="19" xml:space="preserve" y="22.5139" stroke="none">1941-02-14</text>
          </g>
        </g>
      </a>
    </g>
    <g id="y.node.1">
      <a target="_blank" xlink:type="simple" xlink:href="https://tigersmuseum.github.io/history/events/rhants/eventdiary.xhtml#N80369" xlink:show="new">
        <g fill="silver" text-rendering="geometricPrecision" shape-rendering="geometricPrecision" transform="matrix(1,0,0,1,406,15)" stroke="silver">
          <rect x="22.6719" y="80" width="54.0391" rx="4" ry="4" height="35.6" stroke="none"/>
        </g>
        <g text-rendering="geometricPrecision" stroke-miterlimit="1.45" shape-rendering="geometricPrecision" transform="matrix(1,0,0,1,406,15)" stroke-linecap="butt">
          <rect x="22.6719" y="80" fill="none" width="54.0391" rx="4" ry="4" height="35.6"/>
        </g>
        <g>
          <g text-rendering="geometricPrecision" stroke-miterlimit="1.45" shape-rendering="geometricPrecision" font-family="sans-serif" transform="matrix(1,0,0,1,406,15)" stroke-linecap="butt">
            <text x="-160.0889" xml:space="preserve" y="133.6645" stroke="none">1st Bn working parties on airfields and OPs under continuous enemy air action.</text>
          </g>
        </g>
        <g>
          <g text-rendering="geometricPrecision" stroke-miterlimit="1.45" shape-rendering="geometricPrecision" font-family="sans-serif" transform="matrix(1,0,0,1,406,15)" stroke-linecap="butt">
            <text x="27.6719" xml:space="preserve" y="102.5139" stroke="none">1942-02</text>
          </g>
        </g>
      </a>
    </g>
    <g id="y.node.2">
      <a target="_blank" xlink:type="simple" xlink:href="https://tigersmuseum.github.io/history/events/rhants/eventdiary.xhtml#N80428" xlink:show="new">
        <g fill="silver" text-rendering="geometricPrecision" shape-rendering="geometricPrecision" transform="matrix(1,0,0,1,406,15)" stroke="silver">
          <rect x="14" y="170" width="71.3828" rx="4" ry="4" height="35.6" stroke="none"/>
        </g>
        <g text-rendering="geometricPrecision" stroke-miterlimit="1.45" shape-rendering="geometricPrecision" transform="matrix(1,0,0,1,406,15)" stroke-linecap="butt">
          <rect x="14" y="170" fill="none" width="71.3828" rx="4" ry="4" height="35.6"/>
        </g>
        <g>
          <g text-rendering="geometricPrecision" stroke-miterlimit="1.45" shape-rendering="geometricPrecision" font-family="sans-serif" transform="matrix(1,0,0,1,406,15)" stroke-linecap="butt">
            <text x="-207.7959" xml:space="preserve" y="223.6645" stroke="none">1st Bn. 1st convoy since Nov 1941. 3 out of 4 supply ships reached the Island. 4 sunk in harbour.</text>
          </g>
        </g>
        <g>
          <g text-rendering="geometricPrecision" stroke-miterlimit="1.45" shape-rendering="geometricPrecision" font-family="sans-serif" transform="matrix(1,0,0,1,406,15)" stroke-linecap="butt">
            <text x="19" xml:space="preserve" y="192.5139" stroke="none">1942-03-23</text>
          </g>
        </g>
      </a>
    </g>
    <g id="y.node.3">
      <a target="_blank" xlink:type="simple" xlink:href="https://tigersmuseum.github.io/history/events/rhants/eventdiary.xhtml#N80462" xlink:show="new">
        <g fill="silver" text-rendering="geometricPrecision" shape-rendering="geometricPrecision" transform="matrix(1,0,0,1,406,15)" stroke="silver">
          <rect x="22.6719" y="260" width="54.0391" rx="4" ry="4" height="35.6" stroke="none"/>
        </g>
        <g text-rendering="geometricPrecision" stroke-miterlimit="1.45" shape-rendering="geometricPrecision" transform="matrix(1,0,0,1,406,15)" stroke-linecap="butt">
          <rect x="22.6719" y="260" fill="none" width="54.0391" rx="4" ry="4" height="35.6"/>
        </g>
        <g>
          <g text-rendering="geometricPrecision" stroke-miterlimit="1.45" shape-rendering="geometricPrecision" font-family="sans-serif" transform="matrix(1,0,0,1,406,15)" stroke-linecap="butt">
            <text x="-177.0898" xml:space="preserve" y="313.6645" stroke="none">1st Bn. Malta’s worst month of bombing, which seriously affected training and routine.</text>
          </g>
        </g>
        <g>
          <g text-rendering="geometricPrecision" stroke-miterlimit="1.45" shape-rendering="geometricPrecision" font-family="sans-serif" transform="matrix(1,0,0,1,406,15)" stroke-linecap="butt">
            <text x="27.6719" xml:space="preserve" y="282.5139" stroke="none">1942-04</text>
          </g>
        </g>
      </a>
    </g>
    <g id="y.node.4">
      <a target="_blank" xlink:type="simple" xlink:href="https://tigersmuseum.github.io/history/events/rhants/eventdiary.xhtml#N80915" xlink:show="new">
        <g fill="silver" text-rendering="geometricPrecision" shape-rendering="geometricPrecision" transform="matrix(1,0,0,1,406,15)" stroke="silver">
          <rect x="14" y="350" width="71.3828" rx="4" ry="4" height="35.6" stroke="none"/>
        </g>
        <g text-rendering="geometricPrecision" stroke-miterlimit="1.45" shape-rendering="geometricPrecision" transform="matrix(1,0,0,1,406,15)" stroke-linecap="butt">
          <rect x="14" y="350" fill="none" width="71.3828" rx="4" ry="4" height="35.6"/>
        </g>
        <g>
          <g text-rendering="geometricPrecision" stroke-miterlimit="1.45" shape-rendering="geometricPrecision" font-family="sans-serif" transform="matrix(1,0,0,1,406,15)" stroke-linecap="butt">
            <text x="-388.9062" xml:space="preserve" y="403.6645" stroke="none">1st Bn sailed for Alexandria with 1st Malta Inf Bde and went into camp at Sidi Bishr and Mena for combined operations training. Bde designation changed to 231 Bde.</text>
          </g>
        </g>
        <g>
          <g text-rendering="geometricPrecision" stroke-miterlimit="1.45" shape-rendering="geometricPrecision" font-family="sans-serif" transform="matrix(1,0,0,1,406,15)" stroke-linecap="butt">
            <text x="19" xml:space="preserve" y="372.5139" stroke="none">1943-03-30</text>
          </g>
        </g>
      </a>
    </g>
    <g id="y.edge.0">
      <g text-rendering="geometricPrecision" stroke-miterlimit="1.45" shape-rendering="geometricPrecision" transform="matrix(1,0,0,1,406,15)" stroke-linecap="butt">
        <path fill="none" d="M49.6914 35.6 L49.6914 71.9566"/>
        <path d="M49.6914 79.9566 L54.6914 67.9566 L49.6914 70.9566 L44.6914 67.9566 Z" stroke="none"/>
      </g>
    </g>
    <g id="y.edge.1">
      <g text-rendering="geometricPrecision" stroke-miterlimit="1.45" shape-rendering="geometricPrecision" transform="matrix(1,0,0,1,406,15)" stroke-linecap="butt">
        <path fill="none" d="M49.6914 115.6 L49.6914 161.9734"/>
        <path d="M49.6914 169.9734 L54.6914 157.9734 L49.6914 160.9734 L44.6914 157.9734 Z" stroke="none"/>
      </g>
    </g>
    <g id="y.edge.2">
      <g text-rendering="geometricPrecision" stroke-miterlimit="1.45" shape-rendering="geometricPrecision" transform="matrix(1,0,0,1,406,15)" stroke-linecap="butt">
        <path fill="none" d="M49.6914 205.6 L49.6914 251.9734"/>
        <path d="M49.6914 259.9734 L54.6914 247.9734 L49.6914 250.9734 L44.6914 247.9734 Z" stroke="none"/>
      </g>
    </g>
    <g id="y.edge.3">
      <g text-rendering="geometricPrecision" stroke-miterlimit="1.45" shape-rendering="geometricPrecision" transform="matrix(1,0,0,1,406,15)" stroke-linecap="butt">
        <path fill="none" d="M49.6914 295.6 L49.6914 341.9734"/>
        <path d="M49.6914 349.9734 L54.6914 337.9734 L49.6914 340.9734 L44.6914 337.9734 Z" stroke="none"/>
      </g>
    </g>
  </g>
</svg>
