<?xml version="1.0" encoding="UTF-8"?><svg xmlns:btmaps="http://rdf.muninn-project.org/ontologies/btmaps#" xmlns:rdf="http://www.w3.org/1999/02/22-rdf-syntax-ns#" xmlns:rdfs="http://www.w3.org/2000/01/rdf-schema#" xmlns="http://www.w3.org/2000/svg" viewBox="0 0 4000 5600" width="100%" preserveAspectRatio="xMidYMid meet">
<g transform="translate(3000, 5000)" rdf:about="btmaps:40000-70c">
<rect x="0" y="0" width="720" height="480" style="stroke:blue; fill:none"/>
<text x="360" y="240" style="font-size:72px; text-anchor:middle">70c</text>
</g>
<g transform="translate(3000, 4520)" rdf:about="btmaps:40000-66a">
<rect x="0" y="0" width="720" height="480" style="stroke:blue; fill:none"/>
<text x="360" y="240" style="font-size:72px; text-anchor:middle">66a</text>
</g>
<g transform="translate(3000, 4040)" rdf:about="btmaps:40000-62a">
<rect x="0" y="0" width="720" height="480" style="stroke:blue; fill:none"/>
<text x="360" y="240" style="font-size:72px; text-anchor:middle">62a</text>
</g>
<g transform="translate(3000, 3560)" rdf:about="btmaps:40000-57a">
<rect x="0" y="0" width="720" height="480" style="stroke:blue; fill:none"/>
<text x="360" y="240" style="font-size:72px; text-anchor:middle">57a</text>
</g>
<g transform="translate(3000, 3080)" rdf:about="btmaps:40000-51">
<rect x="0" y="0" width="720" height="480" style="stroke:blue; fill:none"/>
<text x="360" y="240" style="font-size:72px; text-anchor:middle">51</text>
</g>
<g transform="translate(3000, 2600)" rdf:about="btmaps:40000-45">
<rect x="0" y="0" width="720" height="480" style="stroke:blue; fill:none"/>
<text x="360" y="240" style="font-size:72px; text-anchor:middle">45</text>
</g>
<g transform="translate(3000, 2120)" rdf:about="btmaps:40000-38">
<rect x="0" y="0" width="720" height="480" style="stroke:blue; fill:none"/>
<text x="360" y="240" style="font-size:72px; text-anchor:middle">38</text>
</g>
<g transform="translate(3000, 1640)" rdf:about="btmaps:40000-30">
<rect x="0" y="0" width="720" height="480" style="stroke:blue; fill:none"/>
<text x="360" y="240" style="font-size:72px; text-anchor:middle">30</text>
</g>
<g transform="translate(3000, 1160)" rdf:about="btmaps:40000-22">
<rect x="0" y="0" width="720" height="480" style="stroke:blue; fill:none"/>
<text x="360" y="240" style="font-size:72px; text-anchor:middle">22</text>
</g>
<g transform="translate(3000, 680)" rdf:about="btmaps:40000-14">
<rect x="0" y="0" width="720" height="480" style="stroke:blue; fill:none"/>
<text x="360" y="240" style="font-size:72px; text-anchor:middle">14</text>
</g>
<g transform="translate(2280, 5000)" rdf:about="btmaps:40000-70d">
<rect x="0" y="0" width="720" height="480" style="stroke:blue; fill:none"/>
<text x="360" y="240" style="font-size:72px; text-anchor:middle">70d</text>
</g>
<g transform="translate(2280, 4520)" rdf:about="btmaps:40000-66c">
<rect x="0" y="0" width="720" height="480" style="stroke:blue; fill:none"/>
<text x="360" y="240" style="font-size:72px; text-anchor:middle">66c</text>
</g>
<g transform="translate(2280, 4040)" rdf:about="btmaps:40000-62b">
<rect x="0" y="0" width="720" height="480" style="stroke:blue; fill:none"/>
<text x="360" y="240" style="font-size:72px; text-anchor:middle">62b</text>
</g>
<g transform="translate(2280, 3560)" rdf:about="btmaps:40000-57b">
<rect x="0" y="0" width="720" height="480" style="stroke:blue; fill:none"/>
<text x="360" y="240" style="font-size:72px; text-anchor:middle">57b</text>
</g>
<g transform="translate(2280, 3080)" rdf:about="btmaps:40000-51a">
<rect x="0" y="0" width="720" height="480" style="stroke:blue; fill:none"/>
<text x="360" y="240" style="font-size:72px; text-anchor:middle">51a</text>
</g>
<g transform="translate(2280, 2600)" rdf:about="btmaps:40000-44">
<rect x="0" y="0" width="720" height="480" style="stroke:blue; fill:none"/>
<text x="360" y="240" style="font-size:72px; text-anchor:middle">44</text>
</g>
<g transform="translate(2280, 2120)" rdf:about="btmaps:40000-37">
<rect x="0" y="0" width="720" height="480" style="stroke:blue; fill:none"/>
<text x="360" y="240" style="font-size:72px; text-anchor:middle">37</text>
</g>
<g transform="translate(2280, 1640)" rdf:about="btmaps:40000-29">
<rect x="0" y="0" width="720" height="480" style="stroke:blue; fill:none"/>
<text x="360" y="240" style="font-size:72px; text-anchor:middle">29</text>
</g>
<g transform="translate(2280, 1160)" rdf:about="btmaps:40000-21">
<rect x="0" y="0" width="720" height="480" style="stroke:blue; fill:none"/>
<text x="360" y="240" style="font-size:72px; text-anchor:middle">21</text>
</g>
<g transform="translate(2280, 680)" rdf:about="btmaps:40000-13">
<rect x="0" y="0" width="720" height="480" style="stroke:blue; fill:none"/>
<text x="360" y="240" style="font-size:72px; text-anchor:middle">13</text>
</g>
<g transform="translate(2280, 200)" rdf:about="btmaps:40000-5">
<rect x="0" y="0" width="720" height="480" style="stroke:blue; fill:none"/>
<text x="360" y="240" style="font-size:72px; text-anchor:middle">5</text>
</g>
<g transform="translate(1560, 5000)" rdf:about="btmaps:40000-70e">
<rect x="0" y="0" width="720" height="480" style="stroke:blue; fill:none"/>
<text x="360" y="240" style="font-size:72px; text-anchor:middle">70e</text>
</g>
<g transform="translate(1560, 4520)" rdf:about="btmaps:40000-66d">
<rect x="0" y="0" width="720" height="480" style="stroke:blue; fill:none"/>
<text x="360" y="240" style="font-size:72px; text-anchor:middle">66d</text>
</g>
<g transform="translate(1560, 4040)" rdf:about="btmaps:40000-62c">
<rect x="0" y="0" width="720" height="480" style="stroke:blue; fill:none"/>
<text x="360" y="240" style="font-size:72px; text-anchor:middle">62c</text>
</g>
<g transform="translate(1560, 3560)" rdf:about="btmaps:40000-57c">
<rect x="0" y="0" width="720" height="480" style="stroke:blue; fill:none"/>
<text x="360" y="240" style="font-size:72px; text-anchor:middle">57c</text>
</g>
<g transform="translate(1560, 3080)" rdf:about="btmaps:40000-51b">
<rect x="0" y="0" width="720" height="480" style="stroke:blue; fill:none"/>
<text x="360" y="240" style="font-size:72px; text-anchor:middle">51b</text>
</g>
<g transform="translate(1560, 2600)" rdf:about="btmaps:40000-36c">
<rect x="0" y="0" width="720" height="480" style="stroke:blue; fill:none"/>
<text x="360" y="240" style="font-size:72px; text-anchor:middle">36c</text>
</g>
<g transform="translate(1560, 2120)" rdf:about="btmaps:40000-36">
<rect x="0" y="0" width="720" height="480" style="stroke:blue; fill:none"/>
<text x="360" y="240" style="font-size:72px; text-anchor:middle">36</text>
</g>
<g transform="translate(1560, 1640)" rdf:about="btmaps:40000-28">
<rect x="0" y="0" width="720" height="480" style="stroke:blue; fill:none"/>
<text x="360" y="240" style="font-size:72px; text-anchor:middle">28</text>
</g>
<g transform="translate(1560, 1160)" rdf:about="btmaps:40000-20">
<rect x="0" y="0" width="720" height="480" style="stroke:blue; fill:none"/>
<text x="360" y="240" style="font-size:72px; text-anchor:middle">20</text>
</g>
<g transform="translate(1560, 680)" rdf:about="btmaps:40000-12">
<rect x="0" y="0" width="720" height="480" style="stroke:blue; fill:none"/>
<text x="360" y="240" style="font-size:72px; text-anchor:middle">12</text>
</g>
<g transform="translate(1560, 200)" rdf:about="btmaps:40000-4">
<rect x="0" y="0" width="720" height="480" style="stroke:blue; fill:none"/>
<text x="360" y="240" style="font-size:72px; text-anchor:middle">4</text>
</g>
<g transform="translate(840, 5000)" rdf:about="btmaps:40000-70f">
<rect x="0" y="0" width="720" height="480" style="stroke:blue; fill:none"/>
<text x="360" y="240" style="font-size:72px; text-anchor:middle">70f</text>
</g>
<g transform="translate(840, 4520)" rdf:about="btmaps:40000-66e">
<rect x="0" y="0" width="720" height="480" style="stroke:blue; fill:none"/>
<text x="360" y="240" style="font-size:72px; text-anchor:middle">66e</text>
</g>
<g transform="translate(840, 4040)" rdf:about="btmaps:40000-62d">
<rect x="0" y="0" width="720" height="480" style="stroke:blue; fill:none"/>
<text x="360" y="240" style="font-size:72px; text-anchor:middle">62d</text>
</g>
<g transform="translate(840, 3560)" rdf:about="btmaps:40000-57d">
<rect x="0" y="0" width="720" height="480" style="stroke:blue; fill:none"/>
<text x="360" y="240" style="font-size:72px; text-anchor:middle">57d</text>
</g>
<g transform="translate(840, 3080)" rdf:about="btmaps:40000-51c">
<rect x="0" y="0" width="720" height="480" style="stroke:blue; fill:none"/>
<text x="360" y="240" style="font-size:72px; text-anchor:middle">51c</text>
</g>
<g transform="translate(840, 2600)" rdf:about="btmaps:40000-36b">
<rect x="0" y="0" width="720" height="480" style="stroke:blue; fill:none"/>
<text x="360" y="240" style="font-size:72px; text-anchor:middle">36b</text>
</g>
<g transform="translate(840, 2120)" rdf:about="btmaps:40000-36a">
<rect x="0" y="0" width="720" height="480" style="stroke:blue; fill:none"/>
<text x="360" y="240" style="font-size:72px; text-anchor:middle">36a</text>
</g>
<g transform="translate(840, 1640)" rdf:about="btmaps:40000-27">
<rect x="0" y="0" width="720" height="480" style="stroke:blue; fill:none"/>
<text x="360" y="240" style="font-size:72px; text-anchor:middle">27</text>
</g>
<g transform="translate(840, 1160)" rdf:about="btmaps:40000-19">
<rect x="0" y="0" width="720" height="480" style="stroke:blue; fill:none"/>
<text x="360" y="240" style="font-size:72px; text-anchor:middle">19</text>
</g>
<g transform="translate(840, 680)" rdf:about="btmaps:40000-11">
<rect x="0" y="0" width="720" height="480" style="stroke:blue; fill:none"/>
<text x="360" y="240" style="font-size:72px; text-anchor:middle">11</text>
</g>
<g transform="translate(120, 5000)" rdf:about="btmaps:40000-70g">
<rect x="0" y="0" width="720" height="480" style="stroke:blue; fill:none"/>
<text x="360" y="240" style="font-size:72px; text-anchor:middle">70g</text>
</g>
<g transform="translate(120, 4520)" rdf:about="btmaps:40000-66f">
<rect x="0" y="0" width="720" height="480" style="stroke:blue; fill:none"/>
<text x="360" y="240" style="font-size:72px; text-anchor:middle">66f</text>
</g>
<g transform="translate(120, 4040)" rdf:about="btmaps:40000-62e">
<rect x="0" y="0" width="720" height="480" style="stroke:blue; fill:none"/>
<text x="360" y="240" style="font-size:72px; text-anchor:middle">62e</text>
</g>
<g transform="translate(120, 3560)" rdf:about="btmaps:40000-57e">
<rect x="0" y="0" width="720" height="480" style="stroke:blue; fill:none"/>
<text x="360" y="240" style="font-size:72px; text-anchor:middle">57e</text>
</g>
<g transform="translate(120, 3080)" rdf:about="btmaps:40000-51d">
<rect x="0" y="0" width="720" height="480" style="stroke:blue; fill:none"/>
<text x="360" y="240" style="font-size:72px; text-anchor:middle">51d</text>
</g>
<g transform="translate(120, 2600)" rdf:about="btmaps:40000-44c">
<rect x="0" y="0" width="720" height="480" style="stroke:blue; fill:none"/>
<text x="360" y="240" style="font-size:72px; text-anchor:middle">44c</text>
</g>
<g transform="translate(120, 2120)" rdf:about="btmaps:40000-36d">
<rect x="0" y="0" width="720" height="480" style="stroke:blue; fill:none"/>
<text x="360" y="240" style="font-size:72px; text-anchor:middle">36d</text>
</g>
<g transform="translate(120, 1640)" rdf:about="btmaps:40000-27a">
<rect x="0" y="0" width="720" height="480" style="stroke:blue; fill:none"/>
<text x="360" y="240" style="font-size:72px; text-anchor:middle">27a</text>
</g>
<g transform="translate(120, 1160)" rdf:about="btmaps:40000-19a">
<rect x="0" y="0" width="720" height="480" style="stroke:blue; fill:none"/>
<text x="360" y="240" style="font-size:72px; text-anchor:middle">19a</text>
</g>
</svg>
